<svg width="737" height="560" viewBox="0 0 737 560" fill="none" xmlns="http://www.w3.org/2000/svg">
<g clip-path="url(#clip0)">
<path opacity="0.2" d="M175.077 467.331C168.872 466.703 162.389 466.031 156.512 467.675C150.636 469.318 145.766 474.118 147.511 478.705C151.409 488.932 174.289 481.809 184.838 488.8C188.605 491.298 190.072 495.228 193.014 498.296C197.774 503.278 205.958 505.601 213.857 506.88C261.309 514.557 315.405 494.797 356.995 513.826C370.464 519.992 381.086 529.802 395.854 533.915C415.419 539.364 436.846 533.542 457.09 529.809C482.337 525.193 508.072 523.843 533.663 525.792C552.593 527.253 577.772 527.742 583.831 513.987C587.73 505.141 579.48 495.294 568.53 491.108C557.579 486.923 544.76 487.054 532.532 487.456C508.93 488.303 485.32 490.013 461.718 489.18C416.076 487.558 372.961 469.457 328.516 468.858C276.756 468.23 227.078 472.576 175.077 467.331Z" fill="#3ABC41"/>
<path opacity="0.4" d="M127.092 238.363C119.792 245.748 119.346 257.07 119.346 257.07C119.346 257.07 130.654 256.427 137.926 249.035C145.197 241.643 145.679 230.327 145.679 230.327C145.679 230.327 134.363 230.992 127.092 238.363Z" fill="#3ABC41"/>
<path opacity="0.4" d="M156.476 55.9181C159.053 65.9622 168.507 72.2078 168.507 72.2078C168.507 72.2078 173.785 62.1783 171.208 52.1342C168.631 42.0901 159.177 35.8518 159.177 35.8518C159.177 35.8518 153.87 45.8813 156.476 55.9181Z" fill="#3ABC41"/>
<path opacity="0.4" d="M583.43 83.5448C576.129 90.9299 575.677 102.252 575.677 102.252C575.677 102.252 586.992 101.61 594.263 94.2171C601.535 86.8246 602.009 75.5022 602.009 75.5022C602.009 75.5022 590.701 76.1961 583.43 83.5448Z" fill="#3ABC41"/>
<path opacity="0.4" d="M360.922 187.039C360.075 197.368 366.96 206.368 366.96 206.368C366.96 206.368 375.231 198.617 376.078 188.281C376.925 177.945 370.04 168.967 370.04 168.967C370.04 168.967 361.769 176.703 360.922 187.039Z" fill="#3ABC41"/>
<path opacity="0.4" d="M600.418 331.901C599.571 342.23 606.455 351.229 606.455 351.229C606.455 351.229 614.726 343.479 615.573 333.15C616.42 322.821 609.536 313.821 609.536 313.821C609.536 313.821 601.265 321.572 600.418 331.901Z" fill="#3ABC41"/>
<path opacity="0.3" d="M428.201 70.4026C380.953 68.9782 335.954 55.793 292.984 41.3295C250.014 26.866 207.453 10.8759 161.337 3.22043C131.675 -1.703 97.7506 -2.39695 73.8566 11.3726C50.8531 24.6162 43.4214 47.4875 39.4281 68.7079C36.4204 84.6689 34.6537 101.47 42.8885 116.415C48.6119 126.796 58.7594 135.518 65.7824 145.452C90.2167 180.04 72.944 222.686 46.4729 256.485C34.0623 272.329 19.6441 287.435 10.0588 304.302C0.473403 321.169 -3.95791 340.483 4.4302 357.678C12.738 374.728 32.5439 387.533 53.9996 396.54C97.5754 414.802 148.904 420.068 198.992 423.034C309.833 429.608 421.259 426.76 532.392 423.911C573.522 422.859 614.827 421.792 655.286 416.285C677.757 413.231 700.95 408.381 717.266 396.664C737.97 381.791 743.102 356.612 729.224 337.963C705.95 306.691 641.62 298.918 625.333 265.353C616.382 246.879 625.574 226.301 638.59 209.164C666.507 172.407 713.295 140.156 715.755 98.1316C717.449 69.2777 694.956 40.3799 660.177 26.7273C623.727 12.4099 573.172 14.2141 546.292 37.9036C518.587 62.2651 469.923 71.6517 428.201 70.4026Z" fill="#3ABC41"/>
<path d="M584.824 207.916C583.818 208.174 582.887 208.666 582.108 209.353C581.329 210.04 580.724 210.902 580.342 211.868L579.612 211.751L576.889 211.313C576.889 211.313 562.463 210.122 559.769 210.305C557.076 210.488 555.389 207.829 555.389 207.829L544.665 198.749L543.833 198.018C544.993 197.58 545.716 197.354 545.716 197.354C545.716 197.354 516.938 161.56 510.733 160.866C504.528 160.172 494.271 151.816 494.168 151.735L494.059 151.165C493.832 149.96 493.665 148.74 493.54 147.513L495.066 148.448C495.066 148.024 495.066 147.601 495.11 147.177C495.338 142.76 496.828 138.5 499.403 134.905C502.403 130.741 506.842 127.469 508.616 122.669C509.323 120.606 509.642 118.429 509.557 116.249C509.603 112.321 508.567 108.457 506.564 105.08C505.543 103.391 504.176 101.939 502.553 100.818C500.929 99.6972 499.087 98.9338 497.147 98.5782C496.125 98.4175 495.081 98.3956 494.073 98.1619C488.08 96.7521 485.875 88.7095 480.049 86.7372C477.334 85.8168 474.311 86.4231 471.69 87.5626C469.07 88.7022 466.697 90.3384 464.135 91.6022C461.572 92.8659 458.667 93.7936 456.338 95.5833C456.097 95.7659 455.841 95.985 455.608 96.2115L455.148 96.6571C454.187 97.6332 453.351 98.7252 452.659 99.9077L452.549 100.09C452.476 100.215 452.41 100.346 452.345 100.477C452.279 100.609 452.235 100.682 452.191 100.784C452.147 100.887 452.074 101.018 452.023 101.135L451.87 101.486L451.739 101.822C451.695 101.946 451.644 102.07 451.607 102.201C451.571 102.333 451.534 102.413 451.505 102.523L451.396 102.91L451.33 103.224C451.33 103.356 451.279 103.494 451.257 103.626C451.235 103.757 451.257 103.823 451.257 103.918C451.257 104.013 451.257 104.196 451.257 104.334C451.257 104.473 451.257 104.517 451.257 104.605C451.257 104.692 451.257 104.897 451.257 105.05C451.257 105.204 451.257 105.196 451.257 105.269C451.285 105.484 451.329 105.697 451.388 105.905C451.782 107.249 453.14 108.622 454.177 109.82C454.06 109.93 453.943 110.032 453.827 110.149C451.362 112.525 449.402 115.374 448.064 118.526C446.726 121.678 446.036 125.067 446.037 128.491C446.038 130.013 446.178 131.531 446.453 133.028C445.126 132.025 443.7 131.161 442.197 130.449C437.253 128.077 431.845 126.83 426.363 126.797C417.42 126.694 404.856 123.334 404.856 123.334C405.177 123.947 405.422 124.597 405.586 125.27C405.038 124.956 404.447 124.62 403.797 124.269C398.559 121.455 392.882 119.553 387.006 118.645C387.006 118.645 383.283 119.163 382.787 111.34C382.616 108.895 382.176 106.477 381.473 104.13C379.336 96.9748 377.855 89.6396 377.049 82.2155L375.8 70.7324C375.8 70.7324 381.422 40.7827 378.042 28.014C379.129 24.0109 378.516 20.3439 374.932 17.7069C360.791 7.29027 346.526 47.8319 346.526 47.8319L341.226 52.9817C339.866 52.0951 338.333 51.5098 336.729 51.2651C336.729 51.2651 333.874 54.187 331.889 62.1639C330.837 66.3933 323.654 73.4571 317.157 79.1475C312.543 83.187 308.09 87.3873 303.644 91.6022C300.359 94.7286 293.036 99.1992 277.063 101.727C274.559 102.121 272.281 102.494 270.201 102.837C270.732 100.949 271.003 98.9979 271.004 97.0369C270.979 92.1011 269.277 87.3204 266.178 83.4801C263.079 79.6398 258.767 76.9682 253.95 75.9042C254.023 75.393 254.023 74.874 253.95 74.3629C253.681 73.263 253.124 72.2545 252.337 71.4409C248.971 67.2772 245.321 62.9966 240.313 61.0243C238.248 60.2206 236.036 59.8645 233.823 59.9797H232.713C232.487 59.9797 232.268 59.9797 232.042 59.9797C229.681 60.1105 227.374 60.7438 225.277 61.8371C223.18 62.9305 221.34 64.4589 219.879 66.3203C218.084 68.7236 217.003 71.5724 215.455 74.1364C212.579 78.8845 208.155 82.5442 203.359 85.4369C200.475 87.1828 197.445 88.6876 194.722 90.6672C184.845 97.8478 180.29 111.121 182.772 122.984C183.867 128.192 186.181 133.32 185.56 138.601C185.071 142.699 182.867 146.381 180.618 149.858C178.37 153.335 175.99 156.87 175.099 160.895C174.208 164.92 175.143 169.661 178.516 172.101C179.757 172.992 181.261 173.562 182.319 174.643C183.023 175.476 183.612 176.4 184.071 177.39C185.862 180.627 188.291 183.467 191.211 185.737C194.131 188.007 197.482 189.66 201.059 190.597C202.194 190.887 203.364 191.015 204.534 190.977H204.658H204.884C207.564 191.145 210.309 190.429 211.207 188.055C211.343 187.515 211.546 186.995 211.812 186.506C212.065 186.142 212.441 185.882 212.871 185.776C213.735 185.973 214.567 186.288 215.346 186.711C219.086 188.651 223.177 189.821 227.377 190.151C228.079 190.207 228.783 190.219 229.487 190.188C230.948 190.324 232.421 190.114 233.787 189.574C235.099 188.907 236.233 187.935 237.094 186.74C237.283 186.499 237.459 186.243 237.641 186.009C236.677 191.843 234.861 197.504 232.253 202.81C232.253 202.81 227.873 210.115 228.187 217.478C228.019 220.161 228.587 222.839 229.83 225.221C229.83 225.221 229.954 224.9 230.209 224.396C231.465 226.5 235.582 233.227 238.284 235.587C238.415 242.534 238.386 251.234 237.517 253.023C236.057 256.084 231.443 277.86 251.286 292.71L255.863 302.74L237.021 304.077C235.115 303.814 210.477 300.497 210.352 305.326C210.228 310.344 214.076 359.213 226.851 355.904C238.758 352.822 234.831 338.57 234.239 336.656L234.663 336.539L234.195 336.408L243.722 327.372C243.902 326.272 243.64 325.145 242.992 324.238L243.087 324.187L266.098 325.217L271.508 336.977C271.508 336.977 280.684 350.944 273.245 362.698C265.806 374.451 258.111 392.83 256.87 403.977C255.856 413.093 249.11 422.049 246.694 425C242.379 426.461 225.829 432.962 232.436 442.802C239.999 454.066 264.558 475.506 274.486 474.768C284.415 474.03 280.436 466.806 280.436 466.806L272.135 458.756C272.135 458.756 270.675 441.604 271.267 436.586C271.588 433.978 269.668 432.1 267.616 431.304C268.398 425.716 270.376 415.124 274.625 409.273C280.575 401.062 299.68 364.933 299.68 364.933C299.68 364.933 305.753 359.542 304.388 343.501C303.841 337.029 303.534 331.345 303.359 326.853L324.983 327.824C324.983 327.824 348.176 325.494 332.422 300.629C316.668 275.763 283.181 251.394 283.181 251.394L282.881 236.003C284.4 236.383 285.291 236.573 285.291 236.573C285.291 236.573 285.159 236.018 284.94 235.024L285.291 235.105C285.291 235.105 280.45 214.147 278.961 197.485L280.326 198.113C294.715 214.776 304.417 200.692 304.417 200.692C304.417 200.692 334.809 157.944 331.83 159.902C331.522 160.055 331.186 160.145 330.843 160.166C330.499 160.187 330.155 160.14 329.83 160.026L332.02 153.043C332.02 153.043 340.992 139.324 327.968 131.611C317.339 125.314 317.617 145.051 318.076 152.51L317.551 152.064C317.551 152.064 307.381 167.404 301.921 175.951C296.46 184.497 291.876 178.873 291.876 178.873L284.977 171.093C286.11 167.976 286.666 164.679 286.619 161.363C286.77 159.049 286.432 156.73 285.629 154.555C284.825 152.38 283.573 150.399 281.954 148.74C276.691 143.371 275.15 138.17 274.99 134.167C275.042 132.093 275.511 130.051 276.37 128.163L312.222 109.17C312.222 109.17 319.785 109.287 329.954 93.611C336.545 83.5851 343.798 74.0115 351.665 64.9543C351.665 64.9543 351.454 64.6475 351.089 64.1435C351.454 63.7125 351.665 63.4787 351.665 63.4787C351.665 63.4787 351.249 62.8724 350.541 61.9374L356.067 55.5603C355.893 58.4425 355.871 61.332 356.002 64.2165L358.864 73.8954L360.47 127.783C360.47 127.783 358.732 132.896 369.902 138.075C379.348 142.458 394.314 149.763 398.68 151.918C398.519 152.312 398.424 152.524 398.424 152.524L399.724 152.436L399.913 152.524C421.734 150.566 420.99 172.364 420.99 172.364C420.99 172.364 422.45 216.704 415.784 232.139C409.119 247.574 410.076 266.676 410.076 266.676C410.076 266.676 410.74 263.418 414.456 267.677C414.383 268.049 414.302 268.451 414.215 268.868C412.083 279.554 407.645 302.287 406.82 311.506C405.911 319.906 404.292 328.215 401.979 336.342L399.789 377.125L413.74 377.804L413.587 379.265C413.511 380.005 413.256 380.716 412.844 381.336C412.431 381.956 411.875 382.466 411.222 382.822C406.447 385.415 395.161 394.51 396.066 422.575L395.584 427.089C394.812 434.735 392.494 442.143 388.773 448.865C388.452 449.435 388.167 449.983 387.926 450.509C387.963 450.213 388.096 449.938 388.306 449.727C388.306 449.727 381.057 451.232 382.546 470.83C384.035 490.429 386.269 493.855 389.248 494.096C392.226 494.337 406.768 497.895 405.987 490.67C405.206 483.446 404.527 467.397 405.491 464.95C406.455 462.503 410.411 455.899 406.659 454.307C407.747 449.812 408.274 445.199 408.229 440.574C408.229 440.574 415.529 429.062 420.749 424.774C425.968 420.486 428.779 413.203 430.67 403.831C430.801 403.217 446.052 393.049 443.81 384.605C443.416 383.144 443.132 381.851 442.913 380.682C442.818 380.163 442.737 379.674 442.664 379.221H442.934L446.037 360.601V378.732L447.877 378.973L447.811 380.434L447.03 397.819C446.888 401.205 446.147 404.539 444.84 407.666C441.555 415.446 435.495 432.765 437.145 451.495L436.97 468.193C436.444 468.296 428.867 470.085 430.305 489.012C431.765 508.604 434.021 512.037 436.999 512.278C439.978 512.519 454.52 516.076 453.746 508.852C452.972 501.627 452.286 485.579 453.25 483.132C454.214 480.685 455.951 474.213 452.199 472.62C452.218 470.425 452.753 468.266 453.761 466.316C455.396 463.533 460.857 450.304 464.967 440.128C469.169 429.83 471.505 418.864 471.866 407.746C471.866 407.622 471.866 407.498 471.866 407.374C471.976 403.623 472.781 399.925 474.238 396.468C475.919 392.599 477.248 388.587 478.21 384.48C478.312 383.991 478.392 383.516 478.465 383.02L482.028 383.494L494.19 330.827C494.19 330.827 497.519 302.28 495.891 289.387C495.826 288.853 495.753 288.364 495.665 287.889L496.395 287.955C496.395 287.955 498.877 281.592 498.132 254.397C497.388 227.201 503.097 218.603 503.097 218.603C506.177 208.829 509.579 205.557 511.565 204.461C512.076 204.135 512.661 203.944 513.266 203.906L522.472 214.447L524.165 216.39C524.169 216.351 524.169 216.312 524.165 216.273L524.896 217.128C524.84 216.694 524.82 216.257 524.837 215.82C529.75 218.676 541.102 225.353 547.877 230.145C556.71 236.39 559.134 235.66 566.858 235.01C571.545 234.623 577.882 231.993 582.13 229.991L582.517 229.809C583.66 230.419 584.864 230.909 586.109 231.27C586.109 231.27 598.578 241.84 599.783 222.548C600.987 203.256 584.824 207.916 584.824 207.916ZM261.418 432.583C260.149 432.204 258.925 431.688 257.768 431.041L261.418 432.583ZM241.897 223.753L241.941 226.492L241.751 226.58C241.81 225.616 241.853 224.666 241.897 223.753ZM436.919 468.259V469.326C436.784 469.181 436.709 468.99 436.709 468.792C436.709 468.594 436.784 468.404 436.919 468.259Z" fill="url(#paint0_linear)"/>
<path d="M476.72 147.287H455.549V169.566H476.72V147.287Z" fill="#9377E2"/>
<path d="M429.823 404.539C427.961 413.853 425.202 421.092 420.092 425.358C414.981 429.624 407.805 441.063 407.805 441.063C407.681 456.279 403.666 460.903 403.666 460.903L399.527 461.999H389.306C389.306 461.999 387.481 456.886 387.116 453.847C386.992 452.831 387.715 451.129 388.722 449.303C392.375 442.609 394.647 435.249 395.402 427.659L395.876 423.167C395.015 395.284 406.097 386.234 410.747 383.655C411.389 383.296 411.936 382.787 412.339 382.172C412.742 381.556 412.99 380.852 413.061 380.119L413.886 372.15L441.379 373.501C441.379 373.501 440.795 375.926 441.839 381.537C442.051 382.698 442.336 383.991 442.715 385.43C444.905 393.823 429.94 403.926 429.823 404.539Z" fill="#8E5362"/>
<path d="M476.443 385.284C475.5 389.362 474.198 393.349 472.552 397.198C471.12 400.639 470.328 404.313 470.216 408.038C470.216 408.163 470.216 408.287 470.216 408.411C469.86 419.453 467.57 430.347 463.448 440.596C459.411 450.706 454.06 463.862 452.454 466.63C449.782 471.254 451.359 479.048 451.359 479.048L435.882 477.953L436.152 451.896C434.539 433.291 440.481 416.103 443.701 408.338C445.002 405.232 445.743 401.921 445.891 398.557L446.621 381.274L446.847 376.16C446.847 376.16 474.209 372.267 476.516 378.476C477.151 380.119 476.998 382.567 476.443 385.284Z" fill="#8E5362"/>
<path opacity="0.1" d="M441.839 381.537L413.032 380.119L413.857 372.15L441.38 373.501C441.38 373.501 440.774 375.919 441.839 381.537Z" fill="black"/>
<path opacity="0.1" d="M476.443 385.284L446.614 381.274L446.84 376.16C446.84 376.16 474.202 372.267 476.509 378.476C477.151 380.119 476.998 382.567 476.443 385.284Z" fill="black"/>
<path d="M492.117 331.974L480.195 384.327L444.913 379.579V361.558L441.861 380.076L399.519 378.001L401.709 337.46C403.978 329.369 405.566 321.103 406.455 312.747C407.28 303.587 411.616 280.993 413.711 270.38C414.441 266.881 414.85 264.675 414.85 264.675C414.85 264.675 487.372 279.766 492.117 285.245C492.927 286.18 493.46 288.167 493.789 290.804C495.38 303.602 492.117 331.974 492.117 331.974Z" fill="#8EC1FD"/>
<path opacity="0.1" d="M407.433 335.385C407.433 335.385 435.977 320.41 442.934 323.573L407.433 335.385Z" fill="black"/>
<path opacity="0.1" d="M423.004 286.443C423.004 286.443 446.731 304.464 447.461 309.329L423.004 286.443Z" fill="black"/>
<path opacity="0.1" d="M416.558 348.533C416.558 348.533 433.714 347.803 439.189 352.186L416.558 348.533Z" fill="black"/>
<path opacity="0.1" d="M447.461 329.263C447.461 329.263 455.615 355.97 452.082 363.275C448.548 370.579 444.906 361.565 444.906 361.565L447.461 329.263Z" fill="black"/>
<path d="M436.006 468.464C436.006 468.464 427.976 469.684 429.436 489.158C430.896 508.633 433.086 512.051 436.006 512.292C438.927 512.533 453.162 516.069 452.432 508.881C451.702 501.693 450.972 485.754 451.943 483.314C452.914 480.874 454.593 474.454 450.914 472.868L450.118 476.623C450.118 476.623 442.329 469.435 437.707 474.673C437.509 473.396 437.189 472.141 436.751 470.925C436.291 469.786 435.284 469.194 436.006 468.464Z" fill="#494457"/>
<path d="M582.97 229.466C582.97 229.466 581.13 230.496 578.429 231.781C574.261 233.768 568.048 236.383 563.449 236.77C555.871 237.413 553.498 238.144 544.833 231.935C538.182 227.172 527.049 220.532 522.202 217.698L520.092 216.448L519.88 216.324V216.237L523.903 205.177L538.138 197.602L541.672 200.634L552.192 209.655C552.192 209.655 553.834 212.299 556.484 212.117C559.134 211.934 573.275 213.117 573.275 213.117L575.947 213.556L581.575 214.491L582.97 229.466Z" fill="#8E5362"/>
<path opacity="0.1" d="M582.97 229.466C582.97 229.466 581.13 230.496 578.429 231.781C575.575 230.32 572.027 227.581 573.392 223.074C574.626 219.02 574.961 215.857 575.976 213.578L581.605 214.513L582.97 229.466Z" fill="black"/>
<path d="M581.057 209.742C581.057 209.742 596.935 205.177 595.753 224.352C594.57 243.527 582.335 233.03 582.335 233.03C582.335 233.03 571.932 230.291 574.122 223.074C576.312 215.857 575.677 211.481 581.057 209.742Z" fill="#8E5362"/>
<path d="M416.434 147.652L399.892 154.606L399.636 154.715L399.454 154.628L398.424 154.109C394.146 151.976 379.443 144.679 370.194 140.347C359.243 135.234 360.944 130.12 360.944 130.12L359.367 76.5542L356.564 66.9338C356.564 66.9338 354.586 34.3252 370.435 26.1511C386.284 17.9771 376.034 73.3839 376.034 73.3839L377.26 84.8963C378.053 92.2609 379.506 99.5391 381.604 106.643C382.289 108.978 382.72 111.381 382.889 113.809C383.378 121.596 387.028 121.077 387.028 121.077C392.794 121.983 398.36 123.876 403.483 126.672C405.386 127.677 407.207 128.83 408.929 130.12L416.434 147.652Z" fill="#8E5362"/>
<path d="M475.326 173.218L461.207 171.757C461.207 171.757 465.368 165.563 467.201 159.537C467.46 158.71 467.667 157.869 467.821 157.016C468.245 154.628 468.135 152.414 467.048 150.815C462.916 144.73 491.628 136.205 491.628 136.205C491.279 139.573 491.174 142.961 491.314 146.344C491.396 148.698 491.64 151.044 492.044 153.364C492.913 158.09 494.643 162.539 497.943 164.818C506.959 171.027 475.326 173.218 475.326 173.218Z" fill="#8E5362"/>
<path opacity="0.1" d="M475.326 173.218L461.207 171.757C461.207 171.757 465.368 165.563 467.201 159.537C468.829 161.852 469.391 161.801 471.676 162.261C471.676 162.261 485.926 164.372 492.059 153.364C492.927 158.09 494.657 162.539 497.957 164.818C506.959 171.027 475.326 173.218 475.326 173.218Z" fill="black"/>
<path opacity="0.1" d="M522.231 217.698C522.214 218.132 522.234 218.567 522.289 218.998L520.099 216.448L519.917 216.237L523.939 205.177L538.175 197.602L541.708 200.634C536.649 202.569 522.457 208.713 522.231 217.698Z" fill="black"/>
<path opacity="0.1" d="M416.434 147.652L399.892 154.606H399.454L398.176 154.693C398.176 154.693 398.271 154.482 398.424 154.087C399.804 150.734 406.206 134.364 403.439 126.65C405.342 127.655 407.163 128.808 408.886 130.098L416.434 147.652Z" fill="black"/>
<path opacity="0.1" d="M493.789 290.782C487.35 290.205 422.931 284.244 416.923 274.755C415.974 273.209 414.899 271.743 413.711 270.372C414.441 266.873 414.85 264.667 414.85 264.667C414.85 264.667 487.372 279.759 492.117 285.238C492.927 286.158 493.46 288.138 493.789 290.782Z" fill="black"/>
<path d="M471.676 162.992C471.676 162.992 486.08 165.125 492.168 153.926C492.168 153.926 502.337 162.283 508.419 162.999C514.5 163.715 542.73 199.275 542.73 199.275C542.73 199.275 520.099 206.579 521.559 218.267L510.85 205.849C510.85 205.849 505.498 205.601 500.877 220.459C500.877 220.459 495.278 228.976 496.008 256.004C496.738 283.031 494.307 289.365 494.307 289.365C494.307 289.365 423.245 283.28 416.923 273.294C410.601 263.308 409.623 268.181 409.623 268.181C409.623 268.181 408.645 249.188 415.215 233.848C421.785 218.508 420.325 174.438 420.325 174.438C420.325 174.438 421.055 152.765 399.643 154.715C399.643 154.715 408.645 133.773 404.513 125.737C404.513 125.737 416.828 129.083 425.603 129.185C430.989 129.227 436.298 130.475 441.139 132.838C443.774 134.131 446.205 135.759 447.585 137.703C451.717 143.546 458.535 140.873 458.535 140.873C460.254 146.22 462.377 151.429 464.887 156.454C465.171 156.987 465.456 157.513 465.748 158.017C466.171 158.748 466.609 159.478 467.047 160.077C468.8 162.583 469.296 162.517 471.676 162.992Z" fill="#9377E2"/>
<path opacity="0.1" d="M491.314 146.322C490.538 147.425 489.673 148.464 488.73 149.427C486.355 151.865 483.517 153.802 480.383 155.124C477.248 156.447 473.881 157.127 470.479 157.126C469.599 157.127 468.719 157.083 467.843 156.995C468.267 154.606 468.157 152.393 467.069 150.793C462.937 144.708 491.65 136.183 491.65 136.183C491.294 139.551 491.181 142.939 491.314 146.322Z" fill="black"/>
<path d="M496.008 130.851C496.008 135.907 494.509 140.85 491.702 145.055C488.894 149.259 484.904 152.536 480.235 154.471C475.566 156.406 470.428 156.913 465.472 155.926C460.516 154.94 455.963 152.505 452.389 148.929C448.816 145.353 446.382 140.798 445.396 135.838C444.411 130.879 444.917 125.738 446.851 121.067C448.784 116.395 452.059 112.402 456.261 109.593C460.463 106.783 465.403 105.284 470.457 105.284C473.816 105.271 477.144 105.924 480.25 107.204C483.355 108.485 486.177 110.368 488.552 112.744C490.927 115.121 492.809 117.944 494.089 121.052C495.368 124.159 496.021 127.49 496.008 130.851Z" fill="#8E5362"/>
<path opacity="0.1" d="M508.667 189.289L509.192 206.397C509.192 206.397 516.821 200.246 517.062 194.402C517.303 188.559 508.667 189.289 508.667 189.289Z" fill="black"/>
<path opacity="0.1" d="M447.096 206.397C447.096 206.397 467.172 233.973 478.852 236.77C490.533 239.568 451.476 215.338 447.096 206.397Z" fill="black"/>
<path opacity="0.1" d="M468.391 209.268C468.391 209.268 479.582 221.92 487.613 223.498L468.391 209.268Z" fill="black"/>
<path opacity="0.1" d="M428.969 241.153C428.969 241.153 449.41 261.241 461.09 262.461L428.969 241.153Z" fill="black"/>
<path opacity="0.1" d="M496.008 130.851C496.012 137.534 493.39 143.951 488.708 148.718L485.904 146.972C484.82 146.408 483.884 145.594 483.174 144.598C482.247 143.05 482.517 141.107 482.59 139.302C482.743 135.482 481.692 131.347 478.706 128.959C473.866 125.08 466.106 127.228 461.185 123.422C460 122.415 458.957 121.253 458.083 119.967L453.469 113.779C453.191 113.414 452.856 113.049 452.498 112.618C456.09 109.083 460.646 106.69 465.594 105.74C470.542 104.789 475.66 105.323 480.305 107.274C484.95 109.226 488.915 112.508 491.701 116.708C494.488 120.908 495.971 125.839 495.964 130.88L496.008 130.851Z" fill="black"/>
<path d="M455.06 98.1107C457.345 96.3648 460.134 95.4444 462.704 94.1588C465.274 92.8731 467.544 91.2368 470.114 90.1411C472.683 89.0454 475.655 88.4026 478.319 89.3157C484.035 91.2807 486.196 99.2721 492.073 100.675C493.066 100.908 494.088 100.93 495.088 101.084C496.997 101.446 498.807 102.209 500.399 103.324C501.991 104.438 503.329 105.878 504.323 107.548C506.285 110.919 507.294 114.759 507.243 118.659C507.325 120.823 507.01 122.985 506.316 125.036C504.579 129.806 500.22 133.071 497.278 137.199C494.493 141.148 493.015 145.872 493.051 150.705L485.926 146.271C484.84 145.709 483.904 144.895 483.196 143.897C482.269 142.348 482.539 140.405 482.612 138.601C482.765 134.781 481.714 130.646 478.735 128.258C473.888 124.379 466.128 126.526 461.215 122.72C460.03 121.714 458.986 120.552 458.112 119.265L453.498 113.078C452.498 111.734 450.578 110.061 450.14 108.425C449.169 104.904 452.491 100.09 455.06 98.1107Z" fill="#362133"/>
<path opacity="0.1" d="M486.722 145.446C485.636 144.883 484.7 144.069 483.992 143.072C483.065 141.523 483.335 139.58 483.408 137.776C483.561 133.955 482.51 129.821 479.524 127.432C474.684 123.553 466.923 125.701 462.003 121.895C460.818 120.888 459.774 119.726 458.9 118.44L454.287 112.253C453.279 110.909 451.366 109.236 450.928 107.6C450.133 104.78 452.148 101.106 454.301 98.7534C451.885 100.989 449.235 105.233 450.133 108.396C450.6 110.032 452.491 111.705 453.491 113.049L458.105 119.236C458.979 120.522 460.022 121.684 461.207 122.691C466.106 126.497 473.866 124.349 478.728 128.228C481.707 130.617 482.758 134.751 482.605 138.572C482.532 140.376 482.261 142.319 483.189 143.868C483.897 144.865 484.833 145.679 485.919 146.242L493.044 150.676C493.044 150.252 493.044 149.829 493.088 149.412L486.722 145.446Z" fill="black"/>
<path d="M388.262 450.158C388.262 450.158 381.152 451.619 382.612 471.13C384.072 490.641 386.262 494.023 389.182 494.264C392.102 494.505 406.338 498.041 405.608 490.853C404.878 483.665 404.148 467.726 405.119 465.286C406.09 462.846 409.944 456.294 406.265 454.709L403.294 458.595C403.294 458.595 395.504 451.407 390.883 456.644C390.883 456.644 386.561 451.86 388.262 450.158Z" fill="#494457"/>
<path opacity="0.1" d="M392.759 462.255C394.3 462.985 395.738 463.876 397.271 464.607C398.781 465.398 400.465 465.795 402.169 465.761C402.893 465.747 403.593 465.504 404.17 465.067" fill="black"/>
<path opacity="0.1" d="M439.554 481.335C440.467 482.175 441.175 483.249 442.204 483.943C443.664 484.921 445.533 484.98 447.315 485.002C447.611 485.029 447.91 484.991 448.191 484.892C448.509 484.719 448.778 484.468 448.972 484.162L449.928 482.927" fill="black"/>
<path d="M319.588 157.389C319.588 157.389 316.302 126.227 329.078 133.897C341.854 141.567 333.057 155.198 333.057 155.198L330.056 164.818L319.588 157.389Z" fill="#A97064"/>
<path d="M340.029 57.8029L347.329 50.6296C347.329 50.6296 361.324 10.3291 375.194 20.6799C389.065 31.0308 357.615 57.2039 357.615 57.2039L349.278 66.9412L340.029 57.8029Z" fill="#A97064"/>
<path d="M233.195 217.179L232.83 225.455C232.83 225.455 239.525 237.143 242.321 237.997C245.117 238.852 244.876 213.278 244.876 213.278L233.195 217.179Z" fill="#FFA8A7"/>
<path opacity="0.1" d="M233.195 217.179L232.83 225.455C232.83 225.455 239.525 237.143 242.321 237.997C245.117 238.852 244.876 213.278 244.876 213.278L233.195 217.179Z" fill="black"/>
<path d="M244.387 208.092L244.883 238.596H278.822L276.267 220.824L244.387 208.092Z" fill="#A97064"/>
<path d="M252.3 284.251L253.884 293.989L273.719 338.066C273.719 338.066 282.721 351.945 275.42 363.633C268.12 375.32 260.579 393.582 259.36 404.656C258.141 415.73 248.533 426.571 248.533 426.571L269.463 435.461C269.463 435.461 270.923 418.053 276.764 409.894C282.604 401.734 301.337 365.824 301.337 365.824C301.337 365.824 307.301 360.462 305.965 344.516C304.629 328.57 304.746 317.364 304.746 317.364L302.68 291.921L252.3 284.251Z" fill="#9377E2"/>
<path opacity="0.1" d="M252.3 284.251L253.884 293.989L273.719 338.066C273.719 338.066 282.721 351.945 275.42 363.633C268.12 375.32 260.579 393.582 259.36 404.656C258.141 415.73 248.533 426.571 248.533 426.571L269.463 435.461C269.463 435.461 270.923 418.053 276.764 409.894C282.604 401.734 301.337 365.824 301.337 365.824C301.337 365.824 307.301 360.462 305.965 344.516C304.629 328.57 304.746 317.364 304.746 317.364L302.68 291.921L252.3 284.251Z" fill="black"/>
<path d="M250.351 425.234C250.351 425.234 227.961 432.049 235.385 443.255C242.81 454.46 266.901 475.761 276.632 475.031C286.364 474.3 282.473 467.112 282.473 467.112L274.318 459.077C274.318 459.077 272.858 442.035 273.471 437.046C274.084 432.057 266.536 429.741 265.558 432.663C264.579 435.585 250.351 425.234 250.351 425.234Z" fill="#232323"/>
<path d="M264.463 225.638L246.715 227.603C245.13 227.778 243.668 228.543 242.618 229.745C241.569 230.948 241.01 232.501 241.05 234.097C241.24 241.197 241.364 252.49 240.371 254.55C238.911 257.596 234.414 279.27 253.877 293.996L280.282 302.396L237.94 305.443L239.284 328.942L245.854 325.29L326.158 328.942C326.158 328.942 348.913 326.626 333.458 301.914C318.003 277.202 285.159 252.972 285.159 252.972L284.794 233.731L282.356 228.136L264.463 225.638Z" fill="#9377E2"/>
<path opacity="0.1" d="M286.488 302.024C289.366 300.767 292.473 300.118 295.613 300.118C298.754 300.118 301.86 300.767 304.739 302.024H286.488Z" fill="black"/>
<path d="M240.014 305.311C240.014 305.311 213.857 301.542 213.732 306.531C213.608 311.52 217.383 360.097 229.917 356.81C242.452 353.523 237.094 337.452 237.094 337.452L246.467 328.445C246.467 328.445 247.438 323.456 241.233 323.938L240.014 305.311Z" fill="#232323"/>
<path d="M283.327 169.077L293.664 180.889C293.664 180.889 298.168 186.491 303.52 177.967C308.871 169.442 318.85 154.226 318.85 154.226C318.85 154.226 329.925 163.963 332.845 162.02C335.765 160.077 305.958 202.569 305.958 202.569C305.958 202.569 296.467 216.565 282.349 200.013L278.217 198.062L283.327 169.077Z" fill="#FFA8A7"/>
<path opacity="0.1" d="M283.327 169.077L293.664 180.889C293.664 180.889 298.168 186.491 303.52 177.967C308.871 169.442 318.85 154.226 318.85 154.226C318.85 154.226 329.925 163.963 332.845 162.02C335.765 160.077 305.958 202.569 305.958 202.569C305.958 202.569 296.467 216.565 282.349 200.013L278.217 198.062L283.327 169.077Z" fill="black"/>
<path d="M251.702 121.077C263.596 121.077 273.238 111.429 273.238 99.5279C273.238 87.6266 263.596 77.9788 251.702 77.9788C239.808 77.9788 230.166 87.6266 230.166 99.5279C230.166 111.429 239.808 121.077 251.702 121.077Z" fill="#A97064"/>
<path opacity="0.1" d="M251.694 111.128C251.694 111.128 233.188 119.894 235.378 135.234C237.568 150.574 237.933 169.932 237.933 169.932C237.933 169.932 246.336 182.35 235.196 206.09C235.196 206.09 228.078 218.143 232.823 226.909C232.823 226.909 238.087 213.03 251.694 223.257C265.302 233.483 287.211 238.231 287.211 238.231C287.211 238.231 275.895 188.559 282.83 181.619C282.83 181.619 294.876 163.722 283.925 152.4C272.975 141.078 278.45 130.486 278.45 130.486L313.616 111.617C313.616 111.617 321.033 111.734 331.013 96.1531C337.473 86.196 344.587 76.6788 352.308 67.6644C352.308 67.6644 344.759 56.342 337.707 55.4873C337.707 55.4873 334.904 58.4092 332.962 66.3276C331.925 70.5279 324.88 77.5478 318.507 83.209C313.981 87.2266 309.615 91.3977 305.257 95.6272C302.03 98.7317 294.847 103.173 279.18 105.686C253.395 109.798 251.694 111.128 251.694 111.128Z" fill="black"/>
<path d="M251.694 109.667C251.694 109.667 233.188 118.433 235.378 133.773C237.568 149.113 237.933 168.471 237.933 168.471C237.933 168.471 246.336 180.889 235.196 204.629C235.196 204.629 228.078 216.682 232.823 225.448C232.823 225.448 238.087 211.569 251.694 221.796C265.302 232.022 287.211 236.77 287.211 236.77C287.211 236.77 275.895 187.098 282.83 180.158C282.83 180.158 294.876 162.261 283.925 150.939C272.975 139.617 278.45 129.025 278.45 129.025L313.616 110.156C313.616 110.156 321.033 110.273 331.013 94.6922C337.473 84.735 344.587 75.2179 352.308 66.2035C352.308 66.2035 344.759 54.881 337.707 54.0264C337.707 54.0264 334.904 56.9483 332.962 64.8667C331.925 69.0669 324.88 76.0868 318.507 81.7481C313.981 85.7657 309.615 89.9367 305.257 94.1662C302.03 97.2707 294.847 101.712 279.18 104.225C253.395 108.337 251.694 109.667 251.694 109.667Z" fill="#FFA8A7"/>
<path opacity="0.1" d="M267.631 201.466C267.631 201.466 281.984 222.65 282.349 226.302C282.356 226.302 280.166 203.533 267.631 201.466Z" fill="black"/>
<path opacity="0.1" d="M248.774 130.12C248.774 130.12 258.783 142.173 273.245 132.071C269.248 133.429 265.016 133.956 260.809 133.621C256.601 133.285 252.506 132.094 248.774 130.12Z" fill="black"/>
<path opacity="0.1" d="M256.534 76.9926C256.272 75.8978 255.729 74.8906 254.958 74.0706C251.658 69.9288 248.073 65.6774 243.16 63.7124C239.899 62.4933 236.333 62.3504 232.985 63.3046C229.637 64.2588 226.682 66.2601 224.552 69.0157C222.785 71.3971 221.734 74.2314 220.208 76.7807C217.39 81.4996 213.032 85.1374 208.345 88.0155C205.52 89.7467 202.541 91.2442 199.876 93.2092C190.189 100.346 185.714 113.538 188.152 125.35C189.225 130.522 191.496 135.621 190.882 140.873C190.408 144.949 188.24 148.601 186.042 152.064C183.845 155.526 181.501 159.033 180.625 163.021C179.749 167.01 180.669 171.736 183.976 174.154C185.195 175.045 186.663 175.615 187.707 176.681C188.398 177.511 188.975 178.43 189.422 179.413C191.161 182.623 193.536 185.445 196.402 187.706C199.267 189.966 202.564 191.619 206.089 192.562C209.228 193.387 213.44 193.088 214.587 190.049C214.718 189.512 214.917 188.994 215.178 188.508C216.215 187.047 218.5 187.865 220.106 188.705C223.762 190.617 227.768 191.768 231.881 192.087C233.513 192.302 235.172 192.104 236.707 191.51C238.003 190.851 239.118 189.886 239.955 188.697C243.795 183.694 244.898 177.156 245.555 170.881C245.985 166.798 246.285 162.641 245.504 158.609C244.263 152.137 240.328 146.089 240.912 139.529C241.532 132.516 247.219 126.782 248.088 119.806C248.53 116.153 247.618 112.466 245.526 109.44C244.753 108.506 244.099 107.481 243.576 106.387C243.327 105.834 243.25 105.219 243.354 104.621C243.458 104.023 243.739 103.47 244.16 103.034C244.623 102.708 245.136 102.461 245.679 102.304C250.373 100.499 252.877 95.7951 253.213 90.9812C253.344 89.155 253.213 87.4749 253.717 85.6926C254.52 82.9387 256.951 79.9291 256.534 76.9926Z" fill="black"/>
<path d="M255.074 76.9926C254.812 75.8978 254.268 74.8906 253.498 74.0706C250.198 69.9288 246.613 65.6774 241.7 63.7124C238.439 62.4933 234.873 62.3504 231.525 63.3046C228.177 64.2588 225.221 66.2601 223.092 69.0157C221.325 71.3971 220.274 74.2314 218.748 76.7807C215.93 81.4996 211.572 85.1374 206.885 88.0155C204.06 89.7467 201.081 91.2442 198.416 93.2092C188.729 100.346 184.254 113.538 186.692 125.35C187.765 130.522 190.036 135.621 189.422 140.873C188.948 144.949 186.78 148.601 184.582 152.064C182.385 155.526 180.041 159.033 179.165 163.021C178.289 167.01 179.209 171.736 182.516 174.154C183.735 175.045 185.203 175.615 186.247 176.681C186.938 177.511 187.514 178.43 187.962 179.413C189.701 182.623 192.076 185.445 194.942 187.706C197.807 189.966 201.104 191.619 204.629 192.562C207.768 193.387 211.98 193.088 213.127 190.049C213.258 189.512 213.457 188.994 213.718 188.508C214.755 187.047 217.04 187.865 218.646 188.705C222.302 190.617 226.308 191.768 230.421 192.087C232.053 192.302 233.712 192.104 235.247 191.51C236.542 190.851 237.658 189.886 238.495 188.697C242.335 183.694 243.438 177.156 244.095 170.881C244.525 166.798 244.825 162.641 244.044 158.609C242.802 152.137 238.868 146.089 239.452 139.529C240.072 132.516 245.759 126.782 246.628 119.806C247.069 116.153 246.158 112.466 244.065 109.44C243.293 108.506 242.639 107.481 242.116 106.387C241.867 105.834 241.79 105.219 241.894 104.621C241.998 104.023 242.279 103.47 242.7 103.034C243.163 102.708 243.676 102.461 244.219 102.304C248.913 100.499 251.417 95.7951 251.753 90.9812C251.884 89.155 251.753 87.4749 252.256 85.6926C253.059 82.9387 255.491 79.9291 255.074 76.9926Z" fill="#232323"/>
<g opacity="0.1">
<path opacity="0.1" d="M211.542 188.471C211.282 188.959 211.081 189.476 210.944 190.012C210.265 191.824 208.491 192.657 206.512 192.861C209.265 193.139 212.207 192.474 213.134 190.012C213.271 189.476 213.472 188.959 213.732 188.471C213.916 188.203 214.168 187.988 214.462 187.85C213.353 187.529 212.214 187.543 211.542 188.471Z" fill="black"/>
<path opacity="0.1" d="M255.111 76.9852C254.856 75.8877 254.311 74.8788 253.534 74.0633C250.234 69.9215 246.65 65.6701 241.737 63.7051C239.601 62.8709 237.306 62.5264 235.02 62.697C236.572 62.7948 238.1 63.1349 239.547 63.7051C244.46 65.6701 248.044 69.9215 251.344 74.0633C252.121 74.8788 252.666 75.8877 252.921 76.9852C253.337 79.9071 250.913 82.9386 250.11 85.6414C249.577 87.4238 249.731 89.0966 249.606 90.9301C249.263 95.7366 246.767 100.426 242.065 102.252C241.522 102.41 241.009 102.657 240.547 102.983C240.125 103.421 239.844 103.975 239.741 104.574C239.639 105.173 239.718 105.79 239.97 106.343C240.49 107.437 241.142 108.462 241.912 109.397C244.006 112.418 244.921 116.104 244.482 119.755C243.606 126.745 237.911 132.472 237.298 139.478C236.714 146.052 240.656 152.086 241.89 158.551C242.664 162.583 242.372 166.739 241.941 170.823C241.284 177.097 240.189 183.642 236.342 188.639C235.507 189.827 234.394 190.793 233.1 191.451C232.344 191.783 231.537 191.983 230.713 192.043C232.264 192.228 233.837 192.024 235.29 191.451C236.587 190.81 237.707 189.862 238.554 188.69C242.401 183.694 243.496 177.149 244.153 170.874C244.584 166.79 244.883 162.634 244.102 158.602C242.868 152.137 238.926 146.081 239.51 139.529C240.138 132.509 245.818 126.782 246.694 119.806C247.133 116.155 246.218 112.469 244.124 109.448C243.354 108.513 242.702 107.488 242.182 106.394C241.93 105.841 241.851 105.225 241.953 104.625C242.056 104.026 242.337 103.472 242.759 103.034C243.221 102.708 243.734 102.461 244.277 102.304C248.979 100.492 251.475 95.7878 251.818 90.9812C251.943 89.1477 251.818 87.4749 252.322 85.6925C253.103 82.9386 255.527 79.9291 255.111 76.9852Z" fill="black"/>
</g>
<path opacity="0.1" d="M227.472 334.786C228.723 336.153 230.334 337.14 232.119 337.633C233.905 338.127 235.793 338.107 237.568 337.576" fill="black"/>
<path opacity="0.1" d="M274.252 459.698C273.555 460.262 272.743 460.667 271.873 460.887C271.004 461.106 270.097 461.134 269.215 460.969" fill="black"/>
<path opacity="0.1" d="M76.7632 482.372C87.6211 482.372 96.4231 480.884 96.4231 479.048C96.4231 477.213 87.6211 475.725 76.7632 475.725C65.9054 475.725 57.1034 477.213 57.1034 479.048C57.1034 480.884 65.9054 482.372 76.7632 482.372Z" fill="#3ABC41"/>
<path d="M615.004 548.554C625.862 548.554 634.664 547.066 634.664 545.23C634.664 543.394 625.862 541.906 615.004 541.906C604.146 541.906 595.344 543.394 595.344 545.23C595.344 547.066 604.146 548.554 615.004 548.554Z" fill="#3ABC41"/>
<path opacity="0.1" d="M615.004 484.578C625.862 484.578 634.664 483.09 634.664 481.254C634.664 479.419 625.862 477.931 615.004 477.931C604.146 477.931 595.344 479.419 595.344 481.254C595.344 483.09 604.146 484.578 615.004 484.578Z" fill="#3ABC41"/>
<path opacity="0.1" d="M132.509 513.235C143.367 513.235 152.169 511.747 152.169 509.911C152.169 508.075 143.367 506.587 132.509 506.587C121.651 506.587 112.849 508.075 112.849 509.911C112.849 511.747 121.651 513.235 132.509 513.235Z" fill="#3ABC41"/>
<path d="M677.181 514.878C693.393 514.878 706.536 512.654 706.536 509.911C706.536 507.168 693.393 504.944 677.181 504.944C660.969 504.944 647.826 507.168 647.826 509.911C647.826 512.654 660.969 514.878 677.181 514.878Z" fill="#3ABC41"/>
<path opacity="0.1" d="M255.118 560C291.711 560 321.376 554.983 321.376 548.794C321.376 542.606 291.711 537.589 255.118 537.589C218.525 537.589 188.86 542.606 188.86 548.794C188.86 554.983 218.525 560 255.118 560Z" fill="#3ABC41"/>
<path d="M689.314 501.788C690.654 500.694 691.631 499.219 692.117 497.559C692.475 495.878 691.76 493.87 690.161 493.256C688.365 492.569 686.445 493.811 684.992 495.075C683.539 496.339 681.868 497.763 679.962 497.5C680.942 496.612 681.675 495.485 682.09 494.229C682.504 492.973 682.586 491.631 682.328 490.334C682.245 489.797 682.018 489.292 681.671 488.873C680.67 487.807 678.867 488.267 677.67 489.107C673.874 491.78 672.815 496.938 672.793 501.584C672.414 499.911 672.735 498.165 672.728 496.47C672.72 494.775 672.246 492.818 670.8 491.919C669.907 491.427 668.9 491.175 667.88 491.189C666.172 491.13 664.274 491.298 663.106 492.547C661.646 494.103 662.033 496.704 663.296 498.391C664.559 500.079 666.471 501.167 668.231 502.351C669.647 503.193 670.854 504.344 671.764 505.718C671.869 505.91 671.957 506.11 672.027 506.317H682.722C685.113 505.111 687.33 503.588 689.314 501.788Z" fill="#3ABC41"/>
<path d="M627.144 537.282C628.482 536.187 629.457 534.713 629.94 533.052C630.298 531.372 629.59 529.4 627.984 528.75C626.188 528.063 624.268 529.305 622.815 530.569C621.362 531.833 619.691 533.257 617.785 532.994C618.765 532.106 619.498 530.979 619.913 529.723C620.327 528.467 620.409 527.125 620.151 525.828C620.072 525.289 619.844 524.783 619.494 524.367C618.501 523.301 616.69 523.761 615.5 524.601C611.704 527.274 610.645 532.432 610.624 537.077C610.237 535.405 610.558 533.659 610.551 531.964C610.543 530.269 610.069 528.312 608.623 527.413C607.727 526.931 606.72 526.692 605.703 526.719C603.995 526.661 602.097 526.829 600.929 528.078C599.469 529.634 599.856 532.234 601.119 533.922C602.382 535.609 604.294 536.698 606.061 537.881C607.474 538.724 608.679 539.875 609.587 541.248C609.692 541.44 609.78 541.64 609.85 541.847H620.545C622.939 540.629 625.159 539.093 627.144 537.282Z" fill="#3ABC41"/>
<path d="M154.775 471.385C154.775 471.385 144.518 436.534 156.702 410.887C161.891 400.158 163.458 388.033 161.17 376.336C160.041 370.794 158.406 365.368 156.286 360.126" stroke="#535461" stroke-width="2" stroke-miterlimit="10"/>
<path d="M163.842 343.917C163.842 348.19 156.111 360.572 156.111 360.572C156.111 360.572 148.387 348.19 148.387 343.917C148.355 342.881 148.532 341.85 148.906 340.884C149.28 339.918 149.844 339.037 150.564 338.294C151.285 337.55 152.148 336.959 153.101 336.555C154.054 336.151 155.079 335.943 156.114 335.943C157.15 335.943 158.174 336.151 159.128 336.555C160.081 336.959 160.944 337.55 161.664 338.294C162.385 339.037 162.949 339.918 163.323 340.884C163.697 341.85 163.874 342.881 163.842 343.917Z" fill="#3ABC41"/>
<path d="M176.617 367.577C174.296 371.156 161.082 377.351 161.082 377.351C161.082 377.351 161.323 362.741 163.645 359.169C164.786 357.509 166.529 356.359 168.503 355.965C170.478 355.571 172.528 355.964 174.218 357.059C175.908 358.154 177.105 359.866 177.553 361.83C178.001 363.795 177.665 365.856 176.617 367.577Z" fill="#3ABC41"/>
<path d="M176.063 408.002C172.252 409.93 157.717 408.601 157.717 408.601C157.717 408.601 165.287 396.117 169.098 394.196C170.92 393.341 173.002 393.23 174.904 393.887C176.806 394.543 178.377 395.916 179.284 397.713C180.19 399.51 180.361 401.591 179.76 403.512C179.158 405.433 177.832 407.043 176.063 408.002Z" fill="#3ABC41"/>
<path d="M168.755 438.514C165.324 441.049 150.774 442.166 150.774 442.166C150.774 442.166 156.133 428.579 159.535 426.037C161.186 424.935 163.197 424.511 165.152 424.852C167.107 425.193 168.856 426.273 170.038 427.869C171.219 429.465 171.741 431.454 171.497 433.425C171.253 435.395 170.261 437.197 168.726 438.456L168.755 438.514Z" fill="#3ABC41"/>
<path d="M144.854 378.184C147.92 381.157 162.177 384.239 162.177 384.239C162.177 384.239 158.688 370.061 155.607 367.088C154.125 365.72 152.168 364.985 150.152 365.041C148.137 365.096 146.223 365.937 144.819 367.385C143.414 368.832 142.63 370.771 142.634 372.788C142.638 374.806 143.429 376.742 144.839 378.184H144.854Z" fill="#3ABC41"/>
<path d="M136.765 413.955C140.576 415.877 155.103 414.547 155.103 414.547C155.103 414.547 147.533 402.063 143.722 400.142C141.897 399.268 139.802 399.144 137.887 399.797C135.972 400.451 134.39 401.83 133.479 403.638C132.569 405.446 132.403 407.539 133.017 409.468C133.631 411.397 134.977 413.008 136.765 413.955Z" fill="#3ABC41"/>
<path d="M133.662 449.8C137.093 452.342 151.643 453.452 151.643 453.452C151.643 453.452 146.285 439.865 142.883 437.331C141.232 436.229 139.22 435.804 137.265 436.145C135.31 436.486 133.561 437.566 132.38 439.162C131.198 440.758 130.676 442.747 130.92 444.718C131.164 446.689 132.157 448.49 133.691 449.749L133.662 449.8Z" fill="#3ABC41"/>
<path d="M130.508 469.194C130.508 469.194 142.999 466.71 146.336 463.401C149.672 460.092 164.652 454.307 166.317 458.441C167.981 462.576 188.802 476.638 174.646 479.121C160.491 481.605 141.335 482.43 137.174 480.78C133.012 479.129 130.508 469.194 130.508 469.194Z" fill="#A8A8A8"/>
<path opacity="0.2" d="M174.668 477.565C160.513 480.049 141.357 480.874 137.196 479.216C134.02 477.96 131.815 471.911 130.946 469.084L130.508 469.194C130.508 469.194 133.005 479.121 137.174 480.779C141.342 482.438 160.491 481.605 174.646 479.121C178.735 478.391 179.903 476.725 179.465 474.592C179.136 475.958 177.713 477.032 174.668 477.565Z" fill="black"/>
<path d="M619.026 433.335C619.026 433.335 623.041 438.587 617.179 446.484C611.317 454.38 606.484 461.093 608.419 466.039C608.419 466.039 617.267 451.319 624.48 451.115C631.692 450.91 626.933 442.166 619.026 433.335Z" fill="#3ABC41"/>
<path opacity="0.1" d="M619.026 433.335C619.377 433.844 619.655 434.399 619.851 434.986C626.874 443.24 630.612 450.947 623.859 451.137C617.573 451.319 610.032 462.569 608.222 465.41C608.281 465.63 608.352 465.847 608.433 466.06C608.433 466.06 617.281 451.341 624.494 451.137C631.707 450.932 626.933 442.166 619.026 433.335Z" fill="black"/>
<path d="M626.487 440.026C626.487 441.874 626.276 443.372 626.02 443.372C625.765 443.372 625.56 441.911 625.56 440.026C625.56 438.141 625.816 439.047 626.071 439.047C626.327 439.047 626.487 438.178 626.487 440.026Z" fill="#FFD037"/>
<path d="M629.042 442.232C627.422 443.116 626.005 443.649 625.889 443.423C625.772 443.196 626.976 442.305 628.597 441.421C630.218 440.537 629.583 441.18 629.707 441.421C629.831 441.662 630.663 441.348 629.042 442.232Z" fill="#FFD037"/>
<path d="M597.848 433.335C597.848 433.335 593.833 438.587 599.695 446.484C605.557 454.38 610.39 461.093 608.455 466.039C608.455 466.039 599.615 451.319 592.395 451.115C585.175 450.91 589.927 442.166 597.848 433.335Z" fill="#3ABC41"/>
<path opacity="0.1" d="M597.848 433.335C597.497 433.844 597.219 434.399 597.023 434.986C590 443.24 586.262 450.947 593.015 451.137C599.301 451.319 606.842 462.569 608.653 465.41C608.594 465.632 608.521 465.849 608.433 466.06C608.433 466.06 599.593 451.341 592.373 451.137C585.153 450.932 589.927 442.166 597.848 433.335Z" fill="black"/>
<path d="M590.387 440.026C590.387 441.874 590.599 443.372 590.854 443.372C591.11 443.372 591.314 441.911 591.314 440.026C591.314 438.141 591.059 439.047 590.803 439.047C590.548 439.047 590.387 438.178 590.387 440.026Z" fill="#FFD037"/>
<path d="M587.832 442.232C589.453 443.116 590.862 443.649 590.986 443.423C591.11 443.196 589.898 442.305 588.277 441.421C586.656 440.537 587.292 441.18 587.168 441.421C587.043 441.662 586.211 441.348 587.832 442.232Z" fill="#FFD037"/>
<path d="M591.665 465.374C591.665 465.374 602.878 465.023 606.265 462.62C609.653 460.217 623.516 457.338 624.355 461.159C625.195 464.979 641.205 480.363 628.546 480.465C615.887 480.568 599.133 478.493 595.76 476.44C592.387 474.388 591.665 465.374 591.665 465.374Z" fill="#A8A8A8"/>
<path opacity="0.2" d="M628.765 479.158C616.106 479.26 599.352 477.186 595.979 475.133C593.409 473.57 592.38 467.952 592.044 465.359H591.665C591.665 465.359 592.395 474.41 595.753 476.462C599.111 478.515 615.88 480.59 628.539 480.487C632.189 480.487 633.452 479.158 633.386 477.237C632.875 478.413 631.481 479.136 628.765 479.158Z" fill="black"/>
</g>
<defs>
<linearGradient id="paint0_linear" x1="387.335" y1="513.395" x2="387.335" y2="15.9976" gradientUnits="userSpaceOnUse">
<stop stop-color="#808080" stop-opacity="0.25"/>
<stop offset="0.54" stop-color="#808080" stop-opacity="0.12"/>
<stop offset="1" stop-color="#808080" stop-opacity="0.1"/>
</linearGradient>
<clipPath id="clip0">
<rect width="737" height="560" fill="white"/>
</clipPath>
</defs>
</svg>
