<?xml version="1.0" encoding="UTF-8" standalone="no"?>
<svg
   xmlns:dc="http://purl.org/dc/elements/1.1/"
   xmlns:cc="http://creativecommons.org/ns#"
   xmlns:rdf="http://www.w3.org/1999/02/22-rdf-syntax-ns#"
   xmlns:svg="http://www.w3.org/2000/svg"
   xmlns="http://www.w3.org/2000/svg"
   xmlns:sodipodi="http://sodipodi.sourceforge.net/DTD/sodipodi-0.dtd"
   xmlns:inkscape="http://www.inkscape.org/namespaces/inkscape"
   width="736.99866"
   height="560"
   viewBox="0 0 736.99866 560"
   version="1.1"
   id="svg204"
   sodipodi:docname="High_five 1.svg"
   style="fill:none"
   inkscape:version="0.92.5 (2060ec1f9f, 2020-04-08)">
  <metadata
     id="metadata208">
    <rdf:RDF>
      <cc:Work
         rdf:about="">
        <dc:format>image/svg+xml</dc:format>
        <dc:type
           rdf:resource="http://purl.org/dc/dcmitype/StillImage" />
      </cc:Work>
    </rdf:RDF>
  </metadata>
  <sodipodi:namedview
     pagecolor="#ffffff"
     bordercolor="#666666"
     borderopacity="1"
     objecttolerance="10"
     gridtolerance="10"
     guidetolerance="10"
     inkscape:pageopacity="0"
     inkscape:pageshadow="2"
     inkscape:window-width="1366"
     inkscape:window-height="715"
     id="namedview206"
     showgrid="false"
     inkscape:zoom="0.40705563"
     inkscape:cx="85.983333"
     inkscape:cy="280"
     inkscape:window-x="0"
     inkscape:window-y="24"
     inkscape:window-maximized="1"
     inkscape:current-layer="svg204" />
  <g
     clip-path="url(#clip0)"
     id="g190">
    <path
       d="m 175.077,467.331 c -6.205,-0.628 -12.688,-1.3 -18.565,0.344 -5.876,1.643 -10.746,6.443 -9.001,11.03 3.898,10.227 26.778,3.104 37.327,10.095 3.767,2.498 5.234,6.428 8.176,9.496 4.76,4.982 12.944,7.305 20.843,8.584 47.452,7.677 101.548,-12.083 143.138,6.946 13.469,6.166 24.091,15.976 38.859,20.089 19.565,5.449 40.992,-0.373 61.236,-4.106 25.247,-4.616 50.982,-5.966 76.573,-4.017 18.93,1.461 44.109,1.95 50.168,-11.805 3.899,-8.846 -4.351,-18.693 -15.301,-22.879 -10.951,-4.185 -23.77,-4.054 -35.998,-3.652 -23.602,0.847 -47.212,2.557 -70.814,1.724 -45.642,-1.622 -88.757,-19.723 -133.202,-20.322 -51.76,-0.628 -101.438,3.718 -153.439,-1.527 z"
       id="path2"
       inkscape:connector-curvature="0"
       style="opacity:0.2;fill:#3abc41" />
    <path
       d="m 127.092,238.363 c -7.3,7.385 -7.746,18.707 -7.746,18.707 0,0 11.308,-0.643 18.58,-8.035 7.271,-7.392 7.753,-18.708 7.753,-18.708 0,0 -11.316,0.665 -18.587,8.036 z"
       id="path4"
       inkscape:connector-curvature="0"
       style="opacity:0.4;fill:#3abc41" />
    <path
       d="m 156.476,55.9181 c 2.577,10.0441 12.031,16.2897 12.031,16.2897 0,0 5.278,-10.0295 2.701,-20.0736 -2.577,-10.0441 -12.031,-16.2824 -12.031,-16.2824 0,0 -5.307,10.0295 -2.701,20.0663 z"
       id="path6"
       inkscape:connector-curvature="0"
       style="opacity:0.4;fill:#3abc41" />
    <path
       d="m 583.43,83.5448 c -7.301,7.3851 -7.753,18.7072 -7.753,18.7072 0,0 11.315,-0.642 18.586,-8.0349 7.272,-7.3925 7.746,-18.7149 7.746,-18.7149 0,0 -11.308,0.6939 -18.579,8.0426 z"
       id="path8"
       inkscape:connector-curvature="0"
       style="opacity:0.4;fill:#3abc41" />
    <path
       d="m 360.922,187.039 c -0.847,10.329 6.038,19.329 6.038,19.329 0,0 8.271,-7.751 9.118,-18.087 0.847,-10.336 -6.038,-19.314 -6.038,-19.314 0,0 -8.271,7.736 -9.118,18.072 z"
       id="path10"
       inkscape:connector-curvature="0"
       style="opacity:0.4;fill:#3abc41" />
    <path
       d="m 600.418,331.901 c -0.847,10.329 6.037,19.328 6.037,19.328 0,0 8.271,-7.75 9.118,-18.079 0.847,-10.329 -6.037,-19.329 -6.037,-19.329 0,0 -8.271,7.751 -9.118,18.08 z"
       id="path12"
       inkscape:connector-curvature="0"
       style="opacity:0.4;fill:#3abc41" />
    <path
       d="M 428.201,70.4026 C 380.953,68.9782 335.954,55.793 292.984,41.3295 250.014,26.866 207.453,10.8759 161.337,3.22043 131.675,-1.703 97.7506,-2.39695 73.8566,11.3726 50.8531,24.6162 43.4214,47.4875 39.4281,68.7079 c -3.0077,15.961 -4.7744,32.7621 3.4604,47.7071 5.7234,10.381 15.8709,19.103 22.8939,29.037 24.4343,34.588 7.1616,77.234 -19.3095,111.033 -12.4106,15.844 -26.8288,30.95 -36.4141,47.817 -9.585397,16.867 -14.01671,36.181 -5.6286,53.376 8.3078,17.05 28.1137,29.855 49.5694,38.862 43.5758,18.262 94.9044,23.528 144.9924,26.494 110.841,6.574 222.267,3.726 333.4,0.877 41.13,-1.052 82.435,-2.119 122.894,-7.626 22.471,-3.054 45.664,-7.904 61.98,-19.621 20.704,-14.873 25.836,-40.052 11.958,-58.701 -23.274,-31.272 -87.604,-39.045 -103.891,-72.61 -8.951,-18.474 0.241,-39.052 13.257,-56.189 27.917,-36.757 74.705,-69.008 77.165,-111.0324 C 717.449,69.2777 694.956,40.3799 660.177,26.7273 623.727,12.4099 573.172,14.2141 546.292,37.9036 518.587,62.2651 469.923,71.6517 428.201,70.4026 Z"
       id="path14"
       inkscape:connector-curvature="0"
       style="opacity:0.3;fill:#3abc41" />
    <path
       d="m 584.824,207.916 c -1.006,0.258 -1.937,0.75 -2.716,1.437 -0.779,0.687 -1.384,1.549 -1.766,2.515 l -0.73,-0.117 -2.723,-0.438 c 0,0 -14.426,-1.191 -17.12,-1.008 -2.693,0.183 -4.38,-2.476 -4.38,-2.476 l -10.724,-9.08 -0.832,-0.731 c 1.16,-0.438 1.883,-0.664 1.883,-0.664 0,0 -28.778,-35.794 -34.983,-36.488 -6.205,-0.694 -16.462,-9.05 -16.565,-9.131 l -0.109,-0.57 c -0.227,-1.205 -0.394,-2.425 -0.519,-3.652 l 1.526,0.935 c 0,-0.424 0,-0.847 0.044,-1.271 0.228,-4.417 1.718,-8.677 4.293,-12.272 3,-4.164 7.439,-7.436 9.213,-12.236 0.707,-2.063 1.026,-4.24 0.941,-6.42 0.046,-3.928 -0.99,-7.792 -2.993,-11.169 -1.021,-1.689 -2.388,-3.141 -4.011,-4.262 -1.624,-1.1208 -3.466,-1.8842 -5.406,-2.2398 -1.022,-0.1607 -2.066,-0.1826 -3.074,-0.4163 -5.993,-1.4098 -8.198,-9.4524 -14.024,-11.4247 -2.715,-0.9204 -5.738,-0.3141 -8.359,0.8254 -2.62,1.1396 -4.993,2.7758 -7.555,4.0396 -2.563,1.2637 -5.468,2.1914 -7.797,3.9811 -0.241,0.1826 -0.497,0.4017 -0.73,0.6282 l -0.46,0.4456 c -0.961,0.9761 -1.797,2.0681 -2.489,3.2506 l -0.11,0.1823 c -0.073,0.125 -0.139,0.256 -0.204,0.387 -0.066,0.132 -0.11,0.205 -0.154,0.307 -0.044,0.103 -0.117,0.234 -0.168,0.351 l -0.153,0.351 -0.131,0.336 c -0.044,0.124 -0.095,0.248 -0.132,0.379 -0.036,0.132 -0.073,0.212 -0.102,0.322 l -0.109,0.387 -0.066,0.314 c 0,0.132 -0.051,0.27 -0.073,0.402 -0.022,0.131 0,0.197 0,0.292 0,0.095 0,0.278 0,0.416 0,0.139 0,0.183 0,0.271 0,0.087 0,0.292 0,0.445 0,0.154 0,0.146 0,0.219 0.028,0.215 0.072,0.428 0.131,0.636 0.394,1.344 1.752,2.717 2.789,3.915 -0.117,0.11 -0.234,0.212 -0.35,0.329 -2.465,2.376 -4.425,5.225 -5.763,8.377 -1.338,3.152 -2.028,6.541 -2.027,9.965 0.001,1.522 0.141,3.04 0.416,4.537 -1.327,-1.003 -2.753,-1.867 -4.256,-2.579 -4.944,-2.372 -10.352,-3.619 -15.834,-3.652 -8.943,-0.103 -21.507,-3.463 -21.507,-3.463 0.321,0.613 0.566,1.263 0.73,1.936 -0.548,-0.314 -1.139,-0.65 -1.789,-1.001 -5.238,-2.814 -10.915,-4.716 -16.791,-5.624 0,0 -3.723,0.518 -4.219,-7.305 -0.171,-2.445 -0.611,-4.863 -1.314,-7.21 -2.137,-7.1552 -3.618,-14.4904 -4.424,-21.9145 L 375.8,70.7324 c 0,0 5.622,-29.9497 2.242,-42.7184 1.087,-4.0031 0.474,-7.6701 -3.11,-10.3071 -14.141,-10.41663 -28.406,30.125 -28.406,30.125 l -5.3,5.1498 c -1.36,-0.8866 -2.893,-1.4719 -4.497,-1.7166 0,0 -2.855,2.9219 -4.84,10.8988 -1.052,4.2294 -8.235,11.2932 -14.732,16.9836 -4.614,4.0395 -9.067,8.2398 -13.513,12.4547 -3.285,3.1264 -10.608,7.597 -26.581,10.1248 -2.504,0.394 -4.782,0.767 -6.862,1.11 0.531,-1.888 0.802,-3.8391 0.803,-5.8001 -0.025,-4.9358 -1.727,-9.7165 -4.826,-13.5568 -3.099,-3.8403 -7.411,-6.5119 -12.228,-7.5759 0.073,-0.5112 0.073,-1.0302 0,-1.5413 -0.269,-1.0999 -0.826,-2.1084 -1.613,-2.922 -3.366,-4.1637 -7.016,-8.4443 -12.024,-10.4166 -2.065,-0.8037 -4.277,-1.1598 -6.49,-1.0446 h -1.11 c -0.226,0 -0.445,0 -0.671,0 -2.361,0.1308 -4.668,0.7641 -6.765,1.8574 -2.097,1.0934 -3.937,2.6218 -5.398,4.4832 -1.795,2.4033 -2.876,5.2521 -4.424,7.8161 -2.876,4.7481 -7.3,8.4078 -12.096,11.3005 -2.884,1.7459 -5.914,3.2507 -8.637,5.2303 -9.877,7.1806 -14.432,20.4538 -11.95,32.3168 1.095,5.208 3.409,10.336 2.788,15.617 -0.489,4.098 -2.693,7.78 -4.942,11.257 -2.248,3.477 -4.628,7.012 -5.519,11.037 -0.891,4.025 0.044,8.766 3.417,11.206 1.241,0.891 2.745,1.461 3.803,2.542 0.704,0.833 1.293,1.757 1.752,2.747 1.791,3.237 4.22,6.077 7.14,8.347 2.92,2.27 6.271,3.923 9.848,4.86 1.135,0.29 2.305,0.418 3.475,0.38 h 0.124 0.226 c 2.68,0.168 5.425,-0.548 6.323,-2.922 0.136,-0.54 0.339,-1.06 0.605,-1.549 0.253,-0.364 0.629,-0.624 1.059,-0.73 0.864,0.197 1.696,0.512 2.475,0.935 3.74,1.94 7.831,3.11 12.031,3.44 0.702,0.056 1.406,0.068 2.11,0.037 1.461,0.136 2.934,-0.074 4.3,-0.614 1.312,-0.667 2.446,-1.639 3.307,-2.834 0.189,-0.241 0.365,-0.497 0.547,-0.731 -0.964,5.834 -2.78,11.495 -5.388,16.801 0,0 -4.38,7.305 -4.066,14.668 -0.168,2.683 0.4,5.361 1.643,7.743 0,0 0.124,-0.321 0.379,-0.825 1.256,2.104 5.373,8.831 8.075,11.191 0.131,6.947 0.102,15.647 -0.767,17.436 -1.46,3.061 -6.074,24.837 13.769,39.687 l 4.577,10.03 -18.842,1.337 c -1.906,-0.263 -26.544,-3.58 -26.669,1.249 -0.124,5.018 3.724,53.887 16.499,50.578 11.907,-3.082 7.98,-17.334 7.388,-19.248 l 0.424,-0.117 -0.468,-0.131 9.527,-9.036 c 0.18,-1.1 -0.082,-2.227 -0.73,-3.134 l 0.095,-0.051 23.011,1.03 5.41,11.76 c 0,0 9.176,13.967 1.737,25.721 -7.439,11.753 -15.134,30.132 -16.375,41.279 -1.014,9.116 -7.76,18.072 -10.176,21.023 -4.315,1.461 -20.865,7.962 -14.258,17.802 7.563,11.264 32.122,32.704 42.05,31.966 9.929,-0.738 5.95,-7.962 5.95,-7.962 l -8.301,-8.05 c 0,0 -1.46,-17.152 -0.868,-22.17 0.321,-2.608 -1.599,-4.486 -3.651,-5.282 0.782,-5.588 2.76,-16.18 7.009,-22.031 5.95,-8.211 25.055,-44.34 25.055,-44.34 0,0 6.073,-5.391 4.708,-21.432 -0.547,-6.472 -0.854,-12.156 -1.029,-16.648 l 21.624,0.971 c 0,0 23.193,-2.33 7.439,-27.195 -15.754,-24.866 -49.241,-49.235 -49.241,-49.235 l -0.3,-15.391 c 1.519,0.38 2.41,0.57 2.41,0.57 0,0 -0.132,-0.555 -0.351,-1.549 l 0.351,0.081 c 0,0 -4.841,-20.958 -6.33,-37.62 l 1.365,0.628 c 14.389,16.663 24.091,2.579 24.091,2.579 0,0 30.392,-42.748 27.413,-40.79 -0.308,0.153 -0.644,0.243 -0.987,0.264 -0.344,0.021 -0.688,-0.026 -1.013,-0.14 l 2.19,-6.983 c 0,0 8.972,-13.719 -4.052,-21.432 -10.629,-6.297 -10.351,13.44 -9.892,20.899 l -0.525,-0.446 c 0,0 -10.17,15.34 -15.63,23.887 -5.461,8.546 -10.045,2.922 -10.045,2.922 l -6.899,-7.78 c 1.133,-3.117 1.689,-6.414 1.642,-9.73 0.151,-2.314 -0.187,-4.633 -0.99,-6.808 -0.804,-2.175 -2.056,-4.156 -3.675,-5.815 -5.263,-5.369 -6.804,-10.57 -6.964,-14.573 0.052,-2.074 0.521,-4.116 1.38,-6.004 l 35.852,-18.993 c 0,0 7.563,0.117 17.732,-15.559 6.591,-10.0259 13.844,-19.5995 21.711,-28.6567 0,0 -0.211,-0.3068 -0.576,-0.8108 0.365,-0.431 0.576,-0.6648 0.576,-0.6648 0,0 -0.416,-0.6063 -1.124,-1.5413 l 5.526,-6.3771 c -0.174,2.8822 -0.196,5.7717 -0.065,8.6562 l 2.862,9.6789 1.606,53.8876 c 0,0 -1.738,5.113 9.432,10.292 9.446,4.383 24.412,11.688 28.778,13.843 -0.161,0.394 -0.256,0.606 -0.256,0.606 l 1.3,-0.088 0.189,0.088 c 21.821,-1.958 21.077,19.84 21.077,19.84 0,0 1.46,44.34 -5.206,59.775 -6.665,15.435 -5.708,34.537 -5.708,34.537 0,0 0.664,-3.258 4.38,1.001 -0.073,0.372 -0.154,0.774 -0.241,1.191 -2.132,10.686 -6.57,33.419 -7.395,42.638 -0.909,8.4 -2.528,16.709 -4.841,24.836 l -2.19,40.783 13.951,0.679 -0.153,1.461 c -0.076,0.74 -0.331,1.451 -0.743,2.071 -0.413,0.62 -0.969,1.13 -1.622,1.486 -4.775,2.593 -16.061,11.688 -15.156,39.753 l -0.482,4.514 c -0.772,7.646 -3.09,15.054 -6.811,21.776 -0.321,0.57 -0.606,1.118 -0.847,1.644 0.037,-0.296 0.17,-0.571 0.38,-0.782 0,0 -7.249,1.505 -5.76,21.103 1.489,19.599 3.723,23.025 6.702,23.266 2.978,0.241 17.52,3.799 16.739,-3.426 -0.781,-7.224 -1.46,-23.273 -0.496,-25.72 0.964,-2.447 4.92,-9.051 1.168,-10.643 1.088,-4.495 1.615,-9.108 1.57,-13.733 0,0 7.3,-11.512 12.52,-15.8 5.219,-4.288 8.03,-11.571 9.921,-20.943 0.131,-0.614 15.382,-10.782 13.14,-19.226 -0.394,-1.461 -0.678,-2.754 -0.897,-3.923 -0.095,-0.519 -0.176,-1.008 -0.249,-1.461 h 0.27 l 3.103,-18.62 v 18.131 l 1.84,0.241 -0.066,1.461 -0.781,17.385 c -0.142,3.386 -0.883,6.72 -2.19,9.847 -3.285,7.78 -9.345,25.099 -7.695,43.829 l -0.175,16.698 c -0.526,0.103 -8.103,1.892 -6.665,20.819 1.46,19.592 3.716,23.025 6.694,23.266 2.979,0.241 17.521,3.798 16.747,-3.426 -0.774,-7.225 -1.46,-23.273 -0.496,-25.72 0.964,-2.447 2.701,-8.919 -1.051,-10.512 0.019,-2.195 0.554,-4.354 1.562,-6.304 1.635,-2.783 7.096,-16.012 11.206,-26.188 4.202,-10.298 6.538,-21.264 6.899,-32.382 0,-0.124 0,-0.248 0,-0.372 0.11,-3.751 0.915,-7.449 2.372,-10.906 1.681,-3.869 3.01,-7.881 3.972,-11.988 0.102,-0.489 0.182,-0.964 0.255,-1.46 l 3.563,0.474 12.162,-52.667 c 0,0 3.329,-28.547 1.701,-41.44 -0.065,-0.534 -0.138,-1.023 -0.226,-1.498 l 0.73,0.066 c 0,0 2.482,-6.363 1.737,-33.558 -0.744,-27.196 4.965,-35.794 4.965,-35.794 3.08,-9.774 6.482,-13.046 8.468,-14.142 0.511,-0.326 1.096,-0.517 1.701,-0.555 l 9.206,10.541 1.693,1.943 c 0.004,-0.039 0.004,-0.078 0,-0.117 l 0.731,0.855 c -0.056,-0.434 -0.076,-0.871 -0.059,-1.308 4.913,2.856 16.265,9.533 23.04,14.325 8.833,6.245 11.257,5.515 18.981,4.865 4.687,-0.387 11.024,-3.017 15.272,-5.019 l 0.387,-0.182 c 1.143,0.61 2.347,1.1 3.592,1.461 0,0 12.469,10.57 13.674,-8.722 1.204,-19.292 -14.959,-14.632 -14.959,-14.632 z M 261.418,432.583 c -1.269,-0.379 -2.493,-0.895 -3.65,-1.542 z m -19.521,-208.83 0.044,2.739 -0.19,0.088 c 0.059,-0.964 0.102,-1.914 0.146,-2.827 z m 195.022,244.506 v 1.067 c -0.135,-0.145 -0.21,-0.336 -0.21,-0.534 0,-0.198 0.075,-0.388 0.21,-0.533 z"
       id="path16"
       inkscape:connector-curvature="0"
       style="fill:url(#paint0_linear)" />
    <path
       d="m 476.72,147.287 h -21.171 v 22.279 h 21.171 z"
       id="path18"
       inkscape:connector-curvature="0"
       style="fill:#9377e2" />
    <path
       d="m 429.823,404.539 c -1.862,9.314 -4.621,16.553 -9.731,20.819 -5.111,4.266 -12.287,15.705 -12.287,15.705 -0.124,15.216 -4.139,19.84 -4.139,19.84 l -4.139,1.096 h -10.221 c 0,0 -1.825,-5.113 -2.19,-8.152 -0.124,-1.016 0.599,-2.718 1.606,-4.544 3.653,-6.694 5.925,-14.054 6.68,-21.644 l 0.474,-4.492 c -0.861,-27.883 10.221,-36.933 14.871,-39.512 0.642,-0.359 1.189,-0.868 1.592,-1.483 0.403,-0.616 0.651,-1.32 0.722,-2.053 l 0.825,-7.969 27.493,1.351 c 0,0 -0.584,2.425 0.46,8.036 0.212,1.161 0.497,2.454 0.876,3.893 2.19,8.393 -12.775,18.496 -12.892,19.109 z"
       id="path20"
       inkscape:connector-curvature="0"
       style="fill:#8e5362" />
    <path
       d="m 476.443,385.284 c -0.943,4.078 -2.245,8.065 -3.891,11.914 -1.432,3.441 -2.224,7.115 -2.336,10.84 0,0.125 0,0.249 0,0.373 -0.356,11.042 -2.646,21.936 -6.768,32.185 -4.037,10.11 -9.388,23.266 -10.994,26.034 -2.672,4.624 -1.095,12.418 -1.095,12.418 l -15.477,-1.095 0.27,-26.057 c -1.613,-18.605 4.329,-35.793 7.549,-43.558 1.301,-3.106 2.042,-6.417 2.19,-9.781 l 0.73,-17.283 0.226,-5.114 c 0,0 27.362,-3.893 29.669,2.316 0.635,1.643 0.482,4.091 -0.073,6.808 z"
       id="path22"
       inkscape:connector-curvature="0"
       style="fill:#8e5362" />
    <path
       d="m 441.839,381.537 -28.807,-1.418 0.825,-7.969 27.523,1.351 c 0,0 -0.606,2.418 0.459,8.036 z"
       id="path24"
       inkscape:connector-curvature="0"
       style="opacity:0.1;fill:#000000" />
    <path
       d="m 476.443,385.284 -29.829,-4.01 0.226,-5.114 c 0,0 27.362,-3.893 29.669,2.316 0.642,1.643 0.489,4.091 -0.066,6.808 z"
       id="path26"
       inkscape:connector-curvature="0"
       style="opacity:0.1;fill:#000000" />
    <path
       d="m 492.117,331.974 -11.922,52.353 -35.282,-4.748 v -18.021 l -3.052,18.518 -42.342,-2.075 2.19,-40.541 c 2.269,-8.091 3.857,-16.357 4.746,-24.713 0.825,-9.16 5.161,-31.754 7.256,-42.367 0.73,-3.499 1.139,-5.705 1.139,-5.705 0,0 72.522,15.091 77.267,20.57 0.81,0.935 1.343,2.922 1.672,5.559 1.591,12.798 -1.672,41.17 -1.672,41.17 z"
       id="path28"
       inkscape:connector-curvature="0"
       style="fill:#8ec1fd" />
    <path
       d="m 407.433,335.385 c 0,0 28.544,-14.975 35.501,-11.812 z"
       id="path30"
       inkscape:connector-curvature="0"
       style="opacity:0.1;fill:#000000" />
    <path
       d="m 423.004,286.443 c 0,0 23.727,18.021 24.457,22.886 z"
       id="path32"
       inkscape:connector-curvature="0"
       style="opacity:0.1;fill:#000000" />
    <path
       d="m 416.558,348.533 c 0,0 17.156,-0.73 22.631,3.653 z"
       id="path34"
       inkscape:connector-curvature="0"
       style="opacity:0.1;fill:#000000" />
    <path
       d="m 447.461,329.263 c 0,0 8.154,26.707 4.621,34.012 -3.534,7.304 -7.176,-1.71 -7.176,-1.71 z"
       id="path36"
       inkscape:connector-curvature="0"
       style="opacity:0.1;fill:#000000" />
    <path
       d="m 436.006,468.464 c 0,0 -8.03,1.22 -6.57,20.694 1.46,19.475 3.65,22.893 6.57,23.134 2.921,0.241 17.156,3.777 16.426,-3.411 -0.73,-7.188 -1.46,-23.127 -0.489,-25.567 0.971,-2.44 2.65,-8.86 -1.029,-10.446 l -0.796,3.755 c 0,0 -7.789,-7.188 -12.411,-1.95 -0.198,-1.277 -0.518,-2.532 -0.956,-3.748 -0.46,-1.139 -1.467,-1.731 -0.745,-2.461 z"
       id="path38"
       inkscape:connector-curvature="0"
       style="fill:#494457" />
    <path
       d="m 582.97,229.466 c 0,0 -1.84,1.03 -4.541,2.315 -4.168,1.987 -10.381,4.602 -14.98,4.989 -7.578,0.643 -9.951,1.374 -18.616,-4.835 -6.651,-4.763 -17.784,-11.403 -22.631,-14.237 l -2.11,-1.25 -0.212,-0.124 v -0.087 l 4.023,-11.06 14.235,-7.575 3.534,3.032 10.52,9.021 c 0,0 1.642,2.644 4.292,2.462 2.65,-0.183 16.791,1 16.791,1 l 2.672,0.439 5.628,0.935 z"
       id="path40"
       inkscape:connector-curvature="0"
       style="fill:#8e5362" />
    <path
       d="m 582.97,229.466 c 0,0 -1.84,1.03 -4.541,2.315 -2.854,-1.461 -6.402,-4.2 -5.037,-8.707 1.234,-4.054 1.569,-7.217 2.584,-9.496 l 5.629,0.935 z"
       id="path42"
       inkscape:connector-curvature="0"
       style="opacity:0.1;fill:#000000" />
    <path
       d="m 581.057,209.742 c 0,0 15.878,-4.565 14.696,14.61 -1.183,19.175 -13.418,8.678 -13.418,8.678 0,0 -10.403,-2.739 -8.213,-9.956 2.19,-7.217 1.555,-11.593 6.935,-13.332 z"
       id="path44"
       inkscape:connector-curvature="0"
       style="fill:#8e5362" />
    <path
       d="m 416.434,147.652 -16.542,6.954 -0.256,0.109 -0.182,-0.087 -1.03,-0.519 c -4.278,-2.133 -18.981,-9.43 -28.23,-13.762 -10.951,-5.113 -9.25,-10.227 -9.25,-10.227 l -1.577,-53.5658 -2.803,-9.6204 c 0,0 -1.978,-32.6086 13.871,-40.7827 15.849,-8.174 5.599,47.2328 5.599,47.2328 l 1.226,11.5124 c 0.793,7.3646 2.246,14.6428 4.344,21.7467 0.685,2.335 1.116,4.738 1.285,7.166 0.489,7.787 4.139,7.268 4.139,7.268 5.766,0.906 11.332,2.799 16.455,5.595 1.903,1.005 3.724,2.158 5.446,3.448 z"
       id="path46"
       inkscape:connector-curvature="0"
       style="fill:#8e5362" />
    <path
       d="m 475.326,173.218 -14.119,-1.461 c 0,0 4.161,-6.194 5.994,-12.22 0.259,-0.827 0.466,-1.668 0.62,-2.521 0.424,-2.388 0.314,-4.602 -0.773,-6.201 -4.132,-6.085 24.58,-14.61 24.58,-14.61 -0.349,3.368 -0.454,6.756 -0.314,10.139 0.082,2.354 0.326,4.7 0.73,7.02 0.869,4.726 2.599,9.175 5.899,11.454 9.016,6.209 -22.617,8.4 -22.617,8.4 z"
       id="path48"
       inkscape:connector-curvature="0"
       style="fill:#8e5362" />
    <path
       d="m 475.326,173.218 -14.119,-1.461 c 0,0 4.161,-6.194 5.994,-12.22 1.628,2.315 2.19,2.264 4.475,2.724 0,0 14.25,2.111 20.383,-8.897 0.868,4.726 2.598,9.175 5.898,11.454 9.002,6.209 -22.631,8.4 -22.631,8.4 z"
       id="path50"
       inkscape:connector-curvature="0"
       style="opacity:0.1;fill:#000000" />
    <path
       d="m 522.231,217.698 c -0.017,0.434 0.003,0.869 0.058,1.3 l -2.19,-2.55 -0.182,-0.211 4.022,-11.06 14.236,-7.575 3.533,3.032 c -5.059,1.935 -19.251,8.079 -19.477,17.064 z"
       id="path52"
       inkscape:connector-curvature="0"
       style="opacity:0.1;fill:#000000" />
    <path
       d="m 416.434,147.652 -16.542,6.954 h -0.438 l -1.278,0.087 c 0,0 0.095,-0.211 0.248,-0.606 1.38,-3.353 7.782,-19.723 5.015,-27.437 1.903,1.005 3.724,2.158 5.447,3.448 z"
       id="path54"
       inkscape:connector-curvature="0"
       style="opacity:0.1;fill:#000000" />
    <path
       d="m 493.789,290.782 c -6.439,-0.577 -70.858,-6.538 -76.866,-16.027 -0.949,-1.546 -2.024,-3.012 -3.212,-4.383 0.73,-3.499 1.139,-5.705 1.139,-5.705 0,0 72.522,15.092 77.267,20.571 0.81,0.92 1.343,2.9 1.672,5.544 z"
       id="path56"
       inkscape:connector-curvature="0"
       style="opacity:0.1;fill:#000000" />
    <path
       d="m 471.676,162.992 c 0,0 14.404,2.133 20.492,-9.066 0,0 10.169,8.357 16.251,9.073 6.081,0.716 34.311,36.276 34.311,36.276 0,0 -22.631,7.304 -21.171,18.992 L 510.85,205.849 c 0,0 -5.352,-0.248 -9.973,14.61 0,0 -5.599,8.517 -4.869,35.545 0.73,27.027 -1.701,33.361 -1.701,33.361 0,0 -71.062,-6.085 -77.384,-16.071 -6.322,-9.986 -7.3,-5.113 -7.3,-5.113 0,0 -0.978,-18.993 5.592,-34.333 6.57,-15.34 5.11,-59.41 5.11,-59.41 0,0 0.73,-21.673 -20.682,-19.723 0,0 9.002,-20.942 4.87,-28.978 0,0 12.315,3.346 21.09,3.448 5.386,0.042 10.695,1.29 15.536,3.653 2.635,1.293 5.066,2.921 6.446,4.865 4.132,5.843 10.95,3.17 10.95,3.17 1.719,5.347 3.842,10.556 6.352,15.581 0.284,0.533 0.569,1.059 0.861,1.563 0.423,0.731 0.861,1.461 1.299,2.06 1.753,2.506 2.249,2.44 4.629,2.915 z"
       id="path58"
       inkscape:connector-curvature="0"
       style="fill:#9377e2" />
    <path
       d="m 491.314,146.322 c -0.776,1.103 -1.641,2.142 -2.584,3.105 -2.375,2.438 -5.213,4.375 -8.347,5.697 -3.135,1.323 -6.502,2.003 -9.904,2.002 -0.88,0.001 -1.76,-0.043 -2.636,-0.131 0.424,-2.389 0.314,-4.602 -0.774,-6.202 -4.132,-6.085 24.581,-14.61 24.581,-14.61 -0.356,3.368 -0.469,6.756 -0.336,10.139 z"
       id="path60"
       inkscape:connector-curvature="0"
       style="opacity:0.1;fill:#000000" />
    <path
       d="m 496.008,130.851 c 0,5.056 -1.499,9.999 -4.306,14.204 -2.808,4.204 -6.798,7.481 -11.467,9.416 -4.669,1.935 -9.807,2.442 -14.763,1.455 -4.956,-0.986 -9.509,-3.421 -13.083,-6.997 -3.573,-3.576 -6.007,-8.131 -6.993,-13.091 -0.985,-4.959 -0.479,-10.1 1.455,-14.771 1.933,-4.672 5.208,-8.665 9.41,-11.474 4.202,-2.81 9.142,-4.309 14.196,-4.309 3.359,-0.013 6.687,0.64 9.793,1.92 3.105,1.281 5.927,3.164 8.302,5.54 2.375,2.377 4.257,5.2 5.537,8.308 1.279,3.107 1.932,6.438 1.919,9.799 z"
       id="path62"
       inkscape:connector-curvature="0"
       style="fill:#8e5362" />
    <path
       d="m 508.667,189.289 0.525,17.108 c 0,0 7.629,-6.151 7.87,-11.995 0.241,-5.843 -8.395,-5.113 -8.395,-5.113 z"
       id="path64"
       inkscape:connector-curvature="0"
       style="opacity:0.1;fill:#000000" />
    <path
       d="m 447.096,206.397 c 0,0 20.076,27.576 31.756,30.373 11.681,2.798 -27.376,-21.432 -31.756,-30.373 z"
       id="path66"
       inkscape:connector-curvature="0"
       style="opacity:0.1;fill:#000000" />
    <path
       d="m 468.391,209.268 c 0,0 11.191,12.652 19.222,14.23 z"
       id="path68"
       inkscape:connector-curvature="0"
       style="opacity:0.1;fill:#000000" />
    <path
       d="m 428.969,241.153 c 0,0 20.441,20.088 32.121,21.308 z"
       id="path70"
       inkscape:connector-curvature="0"
       style="opacity:0.1;fill:#000000" />
    <path
       d="m 496.008,130.851 c 0.004,6.683 -2.618,13.1 -7.3,17.867 l -2.804,-1.746 c -1.084,-0.564 -2.02,-1.378 -2.73,-2.374 -0.927,-1.548 -0.657,-3.491 -0.584,-5.296 0.153,-3.82 -0.898,-7.955 -3.884,-10.343 -4.84,-3.879 -12.6,-1.731 -17.521,-5.537 -1.185,-1.007 -2.228,-2.169 -3.102,-3.455 l -4.614,-6.188 c -0.278,-0.365 -0.613,-0.73 -0.971,-1.161 3.592,-3.535 8.148,-5.928 13.096,-6.878 4.948,-0.951 10.066,-0.417 14.711,1.534 4.645,1.952 8.61,5.234 11.396,9.434 2.787,4.2 4.27,9.131 4.263,14.172 z"
       id="path72"
       inkscape:connector-curvature="0"
       style="opacity:0.1;fill:#000000" />
    <path
       d="m 455.06,98.1107 c 2.285,-1.7459 5.074,-2.6663 7.644,-3.9519 2.57,-1.2857 4.84,-2.922 7.41,-4.0177 2.569,-1.0957 5.541,-1.7385 8.205,-0.8254 5.716,1.965 7.877,9.9564 13.754,11.3593 0.993,0.233 2.015,0.255 3.015,0.409 1.909,0.362 3.719,1.125 5.311,2.24 1.592,1.114 2.93,2.554 3.924,4.224 1.962,3.371 2.971,7.211 2.92,11.111 0.082,2.164 -0.233,4.326 -0.927,6.377 -1.737,4.77 -6.096,8.035 -9.038,12.163 -2.785,3.949 -4.263,8.673 -4.227,13.506 l -7.125,-4.434 c -1.086,-0.562 -2.022,-1.376 -2.73,-2.374 -0.927,-1.549 -0.657,-3.492 -0.584,-5.296 0.153,-3.82 -0.898,-7.955 -3.877,-10.343 -4.847,-3.879 -12.607,-1.732 -17.52,-5.538 -1.185,-1.006 -2.229,-2.168 -3.103,-3.455 l -4.614,-6.187 c -1,-1.344 -2.92,-3.017 -3.358,-4.653 -0.971,-3.521 2.351,-8.335 4.92,-10.3143 z"
       id="path74"
       inkscape:connector-curvature="0"
       style="fill:#362133" />
    <path
       d="m 486.722,145.446 c -1.086,-0.563 -2.022,-1.377 -2.73,-2.374 -0.927,-1.549 -0.657,-3.492 -0.584,-5.296 0.153,-3.821 -0.898,-7.955 -3.884,-10.344 -4.84,-3.879 -12.601,-1.731 -17.521,-5.537 -1.185,-1.007 -2.229,-2.169 -3.103,-3.455 l -4.613,-6.187 c -1.008,-1.344 -2.921,-3.017 -3.359,-4.653 -0.795,-2.82 1.22,-6.494 3.373,-8.8466 -2.416,2.2356 -5.066,6.4796 -4.168,9.6426 0.467,1.636 2.358,3.309 3.358,4.653 l 4.614,6.187 c 0.874,1.286 1.917,2.448 3.102,3.455 4.899,3.806 12.659,1.658 17.521,5.537 2.979,2.389 4.03,6.523 3.877,10.344 -0.073,1.804 -0.344,3.747 0.584,5.296 0.708,0.997 1.644,1.811 2.73,2.374 l 7.125,4.434 c 0,-0.424 0,-0.847 0.044,-1.264 z"
       id="path76"
       inkscape:connector-curvature="0"
       style="opacity:0.1;fill:#000000" />
    <path
       d="m 388.262,450.158 c 0,0 -7.11,1.461 -5.65,20.972 1.46,19.511 3.65,22.893 6.57,23.134 2.92,0.241 17.156,3.777 16.426,-3.411 -0.73,-7.188 -1.46,-23.127 -0.489,-25.567 0.971,-2.44 4.825,-8.992 1.146,-10.577 l -2.971,3.886 c 0,0 -7.79,-7.188 -12.411,-1.951 0,0 -4.322,-4.784 -2.621,-6.486 z"
       id="path78"
       inkscape:connector-curvature="0"
       style="fill:#494457" />
    <path
       d="m 392.759,462.255 c 1.541,0.73 2.979,1.621 4.512,2.352 1.51,0.791 3.194,1.188 4.898,1.154 0.724,-0.014 1.424,-0.257 2.001,-0.694"
       id="path80"
       inkscape:connector-curvature="0"
       style="opacity:0.1;fill:#000000" />
    <path
       d="m 439.554,481.335 c 0.913,0.84 1.621,1.914 2.65,2.608 1.46,0.978 3.329,1.037 5.111,1.059 0.296,0.027 0.595,-0.011 0.876,-0.11 0.318,-0.173 0.587,-0.424 0.781,-0.73 l 0.956,-1.235"
       id="path82"
       inkscape:connector-curvature="0"
       style="opacity:0.1;fill:#000000" />
    <path
       d="m 319.588,157.389 c 0,0 -3.286,-31.162 9.49,-23.492 12.776,7.67 3.979,21.301 3.979,21.301 l -3.001,9.62 z"
       id="path84"
       inkscape:connector-curvature="0"
       style="fill:#a97064" />
    <path
       d="m 340.029,57.8029 7.3,-7.1733 c 0,0 13.995,-40.3005 27.865,-29.9497 13.871,10.3509 -17.579,36.524 -17.579,36.524 l -8.337,9.7373 z"
       id="path86"
       inkscape:connector-curvature="0"
       style="fill:#a97064" />
    <path
       d="m 233.195,217.179 -0.365,8.276 c 0,0 6.695,11.688 9.491,12.542 2.796,0.855 2.555,-24.719 2.555,-24.719 z"
       id="path88"
       inkscape:connector-curvature="0"
       style="fill:#ffa8a7" />
    <path
       d="m 233.195,217.179 -0.365,8.276 c 0,0 6.695,11.688 9.491,12.542 2.796,0.855 2.555,-24.719 2.555,-24.719 z"
       id="path90"
       inkscape:connector-curvature="0"
       style="opacity:0.1;fill:#000000" />
    <path
       d="m 244.387,208.092 0.496,30.504 h 33.939 l -2.555,-17.772 z"
       id="path92"
       inkscape:connector-curvature="0"
       style="fill:#a97064" />
    <path
       d="m 252.3,284.251 1.584,9.738 19.835,44.077 c 0,0 9.002,13.879 1.701,25.567 -7.3,11.687 -14.841,29.949 -16.06,41.023 -1.219,11.074 -10.827,21.915 -10.827,21.915 l 20.93,8.89 c 0,0 1.46,-17.408 7.301,-25.567 5.84,-8.16 24.573,-44.07 24.573,-44.07 0,0 5.964,-5.362 4.628,-21.308 -1.336,-15.946 -1.219,-27.152 -1.219,-27.152 l -2.066,-25.443 z"
       id="path94"
       inkscape:connector-curvature="0"
       style="fill:#9377e2" />
    <path
       d="m 252.3,284.251 1.584,9.738 19.835,44.077 c 0,0 9.002,13.879 1.701,25.567 -7.3,11.687 -14.841,29.949 -16.06,41.023 -1.219,11.074 -10.827,21.915 -10.827,21.915 l 20.93,8.89 c 0,0 1.46,-17.408 7.301,-25.567 5.84,-8.16 24.573,-44.07 24.573,-44.07 0,0 5.964,-5.362 4.628,-21.308 -1.336,-15.946 -1.219,-27.152 -1.219,-27.152 l -2.066,-25.443 z"
       id="path96"
       inkscape:connector-curvature="0"
       style="opacity:0.1;fill:#000000" />
    <path
       d="m 250.351,425.234 c 0,0 -22.39,6.815 -14.966,18.021 7.425,11.205 31.516,32.506 41.247,31.776 9.732,-0.731 5.841,-7.919 5.841,-7.919 l -8.155,-8.035 c 0,0 -1.46,-17.042 -0.847,-22.031 0.613,-4.989 -6.935,-7.305 -7.913,-4.383 -0.979,2.922 -15.207,-7.429 -15.207,-7.429 z"
       id="path98"
       inkscape:connector-curvature="0"
       style="fill:#232323" />
    <path
       d="m 264.463,225.638 -17.748,1.965 c -1.585,0.175 -3.047,0.94 -4.097,2.142 -1.049,1.203 -1.608,2.756 -1.568,4.352 0.19,7.1 0.314,18.393 -0.679,20.453 -1.46,3.046 -5.957,24.72 13.506,39.446 l 26.405,8.4 -42.342,3.047 1.344,23.499 6.57,-3.652 80.304,3.652 c 0,0 22.755,-2.316 7.3,-27.028 -15.455,-24.712 -48.299,-48.942 -48.299,-48.942 l -0.365,-19.241 -2.438,-5.595 z"
       id="path100"
       inkscape:connector-curvature="0"
       style="fill:#9377e2" />
    <path
       d="m 286.488,302.024 c 2.878,-1.257 5.985,-1.906 9.125,-1.906 3.141,0 6.247,0.649 9.126,1.906 z"
       id="path102"
       inkscape:connector-curvature="0"
       style="opacity:0.1;fill:#000000" />
    <path
       d="m 240.014,305.311 c 0,0 -26.157,-3.769 -26.282,1.22 -0.124,4.989 3.651,53.566 16.185,50.279 12.535,-3.287 7.177,-19.358 7.177,-19.358 l 9.373,-9.007 c 0,0 0.971,-4.989 -5.234,-4.507 z"
       id="path104"
       inkscape:connector-curvature="0"
       style="fill:#232323" />
    <path
       d="m 283.327,169.077 10.337,11.812 c 0,0 4.504,5.602 9.856,-2.922 5.351,-8.525 15.33,-23.741 15.33,-23.741 0,0 11.075,9.737 13.995,7.794 2.92,-1.943 -26.887,40.549 -26.887,40.549 0,0 -9.491,13.996 -23.609,-2.556 l -4.132,-1.951 z"
       id="path106"
       inkscape:connector-curvature="0"
       style="fill:#ffa8a7" />
    <path
       d="m 283.327,169.077 10.337,11.812 c 0,0 4.504,5.602 9.856,-2.922 5.351,-8.525 15.33,-23.741 15.33,-23.741 0,0 11.075,9.737 13.995,7.794 2.92,-1.943 -26.887,40.549 -26.887,40.549 0,0 -9.491,13.996 -23.609,-2.556 l -4.132,-1.951 z"
       id="path108"
       inkscape:connector-curvature="0"
       style="opacity:0.1;fill:#000000" />
    <path
       d="m 251.702,121.077 c 11.894,0 21.536,-9.648 21.536,-21.5491 0,-11.9013 -9.642,-21.5491 -21.536,-21.5491 -11.894,0 -21.536,9.6478 -21.536,21.5491 0,11.9011 9.642,21.5491 21.536,21.5491 z"
       id="path110"
       inkscape:connector-curvature="0"
       style="fill:#a97064" />
    <path
       d="m 251.694,111.128 c 0,0 -18.506,8.766 -16.316,24.106 2.19,15.34 2.555,34.698 2.555,34.698 0,0 8.403,12.418 -2.737,36.158 0,0 -7.118,12.053 -2.373,20.819 0,0 5.264,-13.879 18.871,-3.652 13.608,10.226 35.517,14.974 35.517,14.974 0,0 -11.316,-49.672 -4.381,-56.612 0,0 12.046,-17.897 1.095,-29.219 -10.95,-11.322 -5.475,-21.914 -5.475,-21.914 l 35.166,-18.869 c 0,0 7.417,0.117 17.397,-15.4639 6.46,-9.9571 13.574,-19.4743 21.295,-28.4887 0,0 -7.549,-11.3224 -14.601,-12.1771 0,0 -2.803,2.9219 -4.745,10.8403 -1.037,4.2003 -8.082,11.2202 -14.455,16.8814 -4.526,4.0176 -8.892,8.1887 -13.25,12.4182 -3.227,3.1045 -10.41,7.5458 -26.077,10.0588 -25.785,4.112 -27.486,5.442 -27.486,5.442 z"
       id="path112"
       inkscape:connector-curvature="0"
       style="opacity:0.1;fill:#000000" />
    <path
       d="m 251.694,109.667 c 0,0 -18.506,8.766 -16.316,24.106 2.19,15.34 2.555,34.698 2.555,34.698 0,0 8.403,12.418 -2.737,36.158 0,0 -7.118,12.053 -2.373,20.819 0,0 5.264,-13.879 18.871,-3.652 13.608,10.226 35.517,14.974 35.517,14.974 0,0 -11.316,-49.672 -4.381,-56.612 0,0 12.046,-17.897 1.095,-29.219 -10.95,-11.322 -5.475,-21.914 -5.475,-21.914 l 35.166,-18.869 c 0,0 7.417,0.117 17.397,-15.4638 6.46,-9.9572 13.574,-19.4743 21.295,-28.4887 0,0 -7.549,-11.3225 -14.601,-12.1771 0,0 -2.803,2.9219 -4.745,10.8403 -1.037,4.2002 -8.082,11.2201 -14.455,16.8814 -4.526,4.0176 -8.892,8.1886 -13.25,12.4181 -3.227,3.1045 -10.41,7.5458 -26.077,10.0588 -25.785,4.112 -27.486,5.442 -27.486,5.442 z"
       id="path114"
       inkscape:connector-curvature="0"
       style="fill:#ffa8a7" />
    <path
       d="m 267.631,201.466 c 0,0 14.353,21.184 14.718,24.836 0.007,0 -2.183,-22.769 -14.718,-24.836 z"
       id="path116"
       inkscape:connector-curvature="0"
       style="opacity:0.1;fill:#000000" />
    <path
       d="m 248.774,130.12 c 0,0 10.009,12.053 24.471,1.951 -3.997,1.358 -8.229,1.885 -12.436,1.55 -4.208,-0.336 -8.303,-1.527 -12.035,-3.501 z"
       id="path118"
       inkscape:connector-curvature="0"
       style="opacity:0.1;fill:#000000" />
    <path
       d="m 256.534,76.9926 c -0.262,-1.0948 -0.805,-2.102 -1.576,-2.922 -3.3,-4.1418 -6.885,-8.3932 -11.798,-10.3582 -3.261,-1.2191 -6.827,-1.362 -10.175,-0.4078 -3.348,0.9542 -6.303,2.9555 -8.433,5.7111 -1.767,2.3814 -2.818,5.2157 -4.344,7.765 -2.818,4.7189 -7.176,8.3567 -11.863,11.2348 -2.825,1.7312 -5.804,3.2287 -8.469,5.1937 -9.687,7.1368 -14.162,20.3288 -11.724,32.1408 1.073,5.172 3.344,10.271 2.73,15.523 -0.474,4.076 -2.642,7.728 -4.84,11.191 -2.197,3.462 -4.541,6.969 -5.417,10.957 -0.876,3.989 0.044,8.715 3.351,11.133 1.219,0.891 2.687,1.461 3.731,2.527 0.691,0.83 1.268,1.749 1.715,2.732 1.739,3.21 4.114,6.032 6.98,8.293 2.865,2.26 6.162,3.913 9.687,4.856 3.139,0.825 7.351,0.526 8.498,-2.513 0.131,-0.537 0.33,-1.055 0.591,-1.541 1.037,-1.461 3.322,-0.643 4.928,0.197 3.656,1.912 7.662,3.063 11.775,3.382 1.632,0.215 3.291,0.017 4.826,-0.577 1.296,-0.659 2.411,-1.624 3.248,-2.813 3.84,-5.003 4.943,-11.541 5.6,-17.816 0.43,-4.083 0.73,-8.24 -0.051,-12.272 -1.241,-6.472 -5.176,-12.52 -4.592,-19.08 0.62,-7.013 6.307,-12.747 7.176,-19.723 0.442,-3.653 -0.47,-7.34 -2.562,-10.366 -0.773,-0.934 -1.427,-1.959 -1.95,-3.053 -0.249,-0.553 -0.326,-1.168 -0.222,-1.766 0.104,-0.598 0.385,-1.151 0.806,-1.587 0.463,-0.326 0.976,-0.573 1.519,-0.73 4.694,-1.805 7.198,-6.5089 7.534,-11.3228 0.131,-1.8262 0,-3.5063 0.504,-5.2886 0.803,-2.7539 3.234,-5.7635 2.817,-8.7 z"
       id="path120"
       inkscape:connector-curvature="0"
       style="opacity:0.1;fill:#000000" />
    <path
       d="m 255.074,76.9926 c -0.262,-1.0948 -0.806,-2.102 -1.576,-2.922 -3.3,-4.1418 -6.885,-8.3932 -11.798,-10.3582 -3.261,-1.2191 -6.827,-1.362 -10.175,-0.4078 -3.348,0.9542 -6.304,2.9555 -8.433,5.7111 -1.767,2.3814 -2.818,5.2157 -4.344,7.765 -2.818,4.7189 -7.176,8.3567 -11.863,11.2348 -2.825,1.7312 -5.804,3.2287 -8.469,5.1937 -9.687,7.1368 -14.162,20.3288 -11.724,32.1408 1.073,5.172 3.344,10.271 2.73,15.523 -0.474,4.076 -2.642,7.728 -4.84,11.191 -2.197,3.462 -4.541,6.969 -5.417,10.957 -0.876,3.989 0.044,8.715 3.351,11.133 1.219,0.891 2.687,1.461 3.731,2.527 0.691,0.83 1.267,1.749 1.715,2.732 1.739,3.21 4.114,6.032 6.98,8.293 2.865,2.26 6.162,3.913 9.687,4.856 3.139,0.825 7.351,0.526 8.498,-2.513 0.131,-0.537 0.33,-1.055 0.591,-1.541 1.037,-1.461 3.322,-0.643 4.928,0.197 3.656,1.912 7.662,3.063 11.775,3.382 1.632,0.215 3.291,0.017 4.826,-0.577 1.295,-0.659 2.411,-1.624 3.248,-2.813 3.84,-5.003 4.943,-11.541 5.6,-17.816 0.43,-4.083 0.73,-8.24 -0.051,-12.272 -1.242,-6.472 -5.176,-12.52 -4.592,-19.08 0.62,-7.013 6.307,-12.747 7.176,-19.723 0.441,-3.653 -0.47,-7.34 -2.563,-10.366 -0.772,-0.934 -1.426,-1.959 -1.949,-3.053 -0.249,-0.553 -0.326,-1.168 -0.222,-1.766 0.104,-0.598 0.385,-1.151 0.806,-1.587 0.463,-0.326 0.976,-0.573 1.519,-0.73 4.694,-1.805 7.198,-6.5089 7.534,-11.3228 0.131,-1.8262 0,-3.5063 0.503,-5.2886 0.803,-2.7539 3.235,-5.7635 2.818,-8.7 z"
       id="path122"
       inkscape:connector-curvature="0"
       style="fill:#232323" />
    <g
       id="g128"
       style="opacity:0.1">
      <path
         d="m 211.542,188.471 c -0.26,0.488 -0.461,1.005 -0.598,1.541 -0.679,1.812 -2.453,2.645 -4.432,2.849 2.753,0.278 5.695,-0.387 6.622,-2.849 0.137,-0.536 0.338,-1.053 0.598,-1.541 0.184,-0.268 0.436,-0.483 0.73,-0.621 -1.109,-0.321 -2.248,-0.307 -2.92,0.621 z"
         id="path124"
         inkscape:connector-curvature="0"
         style="opacity:0.1;fill:#000000" />
      <path
         d="m 255.111,76.9852 c -0.255,-1.0975 -0.8,-2.1064 -1.577,-2.9219 -3.3,-4.1418 -6.884,-8.3932 -11.797,-10.3582 -2.136,-0.8342 -4.431,-1.1787 -6.717,-1.0081 1.552,0.0978 3.08,0.4379 4.527,1.0081 4.913,1.965 8.497,6.2164 11.797,10.3582 0.777,0.8155 1.322,1.8244 1.577,2.9219 0.416,2.9219 -2.008,5.9534 -2.811,8.6562 -0.533,1.7824 -0.379,3.4552 -0.504,5.2887 -0.343,4.8065 -2.839,9.4959 -7.541,11.3219 -0.543,0.158 -1.056,0.405 -1.518,0.731 -0.422,0.438 -0.703,0.992 -0.806,1.591 -0.102,0.599 -0.023,1.216 0.229,1.769 0.52,1.094 1.172,2.119 1.942,3.054 2.094,3.021 3.009,6.707 2.57,10.358 -0.876,6.99 -6.571,12.717 -7.184,19.723 -0.584,6.574 3.358,12.608 4.592,19.073 0.774,4.032 0.482,8.188 0.051,12.272 -0.657,6.274 -1.752,12.819 -5.599,17.816 -0.835,1.188 -1.948,2.154 -3.242,2.812 -0.756,0.332 -1.563,0.532 -2.387,0.592 1.551,0.185 3.124,-0.019 4.577,-0.592 1.297,-0.641 2.417,-1.589 3.264,-2.761 3.847,-4.996 4.942,-11.541 5.599,-17.816 0.431,-4.084 0.73,-8.24 -0.051,-12.272 -1.234,-6.465 -5.176,-12.521 -4.592,-19.073 0.628,-7.02 6.308,-12.747 7.184,-19.723 0.439,-3.651 -0.476,-7.337 -2.57,-10.358 -0.77,-0.935 -1.422,-1.96 -1.942,-3.054 -0.252,-0.553 -0.331,-1.169 -0.229,-1.769 0.103,-0.599 0.384,-1.153 0.806,-1.591 0.462,-0.326 0.975,-0.573 1.518,-0.73 4.702,-1.812 7.198,-6.5162 7.541,-11.3228 0.125,-1.8335 0,-3.5063 0.504,-5.2887 0.781,-2.7539 3.205,-5.7634 2.789,-8.7073 z"
         id="path126"
         inkscape:connector-curvature="0"
         style="opacity:0.1;fill:#000000" />
    </g>
    <path
       d="m 227.472,334.786 c 1.251,1.367 2.862,2.354 4.647,2.847 1.786,0.494 3.674,0.474 5.449,-0.057"
       id="path130"
       inkscape:connector-curvature="0"
       style="opacity:0.1;fill:#000000" />
    <path
       d="m 274.252,459.698 c -0.697,0.564 -1.509,0.969 -2.379,1.189 -0.869,0.219 -1.776,0.247 -2.658,0.082"
       id="path132"
       inkscape:connector-curvature="0"
       style="opacity:0.1;fill:#000000" />
    <path
       d="m 76.7632,482.372 c 10.8579,0 19.6599,-1.488 19.6599,-3.324 0,-1.835 -8.802,-3.323 -19.6599,-3.323 -10.8578,0 -19.6598,1.488 -19.6598,3.323 0,1.836 8.802,3.324 19.6598,3.324 z"
       id="path134"
       inkscape:connector-curvature="0"
       style="opacity:0.1;fill:#3abc41" />
    <path
       d="m 615.004,548.554 c 10.858,0 19.66,-1.488 19.66,-3.324 0,-1.836 -8.802,-3.324 -19.66,-3.324 -10.858,0 -19.66,1.488 -19.66,3.324 0,1.836 8.802,3.324 19.66,3.324 z"
       id="path136"
       inkscape:connector-curvature="0"
       style="fill:#3abc41" />
    <path
       d="m 615.004,484.578 c 10.858,0 19.66,-1.488 19.66,-3.324 0,-1.835 -8.802,-3.323 -19.66,-3.323 -10.858,0 -19.66,1.488 -19.66,3.323 0,1.836 8.802,3.324 19.66,3.324 z"
       id="path138"
       inkscape:connector-curvature="0"
       style="opacity:0.1;fill:#3abc41" />
    <path
       d="m 132.509,513.235 c 10.858,0 19.66,-1.488 19.66,-3.324 0,-1.836 -8.802,-3.324 -19.66,-3.324 -10.858,0 -19.66,1.488 -19.66,3.324 0,1.836 8.802,3.324 19.66,3.324 z"
       id="path140"
       inkscape:connector-curvature="0"
       style="opacity:0.1;fill:#3abc41" />
    <path
       d="m 677.181,514.878 c 16.212,0 29.355,-2.224 29.355,-4.967 0,-2.743 -13.143,-4.967 -29.355,-4.967 -16.212,0 -29.355,2.224 -29.355,4.967 0,2.743 13.143,4.967 29.355,4.967 z"
       id="path142"
       inkscape:connector-curvature="0"
       style="fill:#3abc41" />
    <path
       d="m 255.118,560 c 36.593,0 66.258,-5.017 66.258,-11.206 0,-6.188 -29.665,-11.205 -66.258,-11.205 -36.593,0 -66.258,5.017 -66.258,11.205 0,6.189 29.665,11.206 66.258,11.206 z"
       id="path144"
       inkscape:connector-curvature="0"
       style="opacity:0.1;fill:#3abc41" />
    <path
       d="m 689.314,501.788 c 1.34,-1.094 2.317,-2.569 2.803,-4.229 0.358,-1.681 -0.357,-3.689 -1.956,-4.303 -1.796,-0.687 -3.716,0.555 -5.169,1.819 -1.453,1.264 -3.124,2.688 -5.03,2.425 0.98,-0.888 1.713,-2.015 2.128,-3.271 0.414,-1.256 0.496,-2.598 0.238,-3.895 -0.083,-0.537 -0.31,-1.042 -0.657,-1.461 -1.001,-1.066 -2.804,-0.606 -4.001,0.234 -3.796,2.673 -4.855,7.831 -4.877,12.477 -0.379,-1.673 -0.058,-3.419 -0.065,-5.114 -0.008,-1.695 -0.482,-3.652 -1.928,-4.551 -0.893,-0.492 -1.9,-0.744 -2.92,-0.73 -1.708,-0.059 -3.606,0.109 -4.774,1.358 -1.46,1.556 -1.073,4.157 0.19,5.844 1.263,1.688 3.175,2.776 4.935,3.96 1.416,0.842 2.623,1.993 3.533,3.367 0.105,0.192 0.193,0.392 0.263,0.599 h 10.695 c 2.391,-1.206 4.608,-2.729 6.592,-4.529 z"
       id="path146"
       inkscape:connector-curvature="0"
       style="fill:#3abc41" />
    <path
       d="m 627.144,537.282 c 1.338,-1.095 2.313,-2.569 2.796,-4.23 0.358,-1.68 -0.35,-3.652 -1.956,-4.302 -1.796,-0.687 -3.716,0.555 -5.169,1.819 -1.453,1.264 -3.124,2.688 -5.03,2.425 0.98,-0.888 1.713,-2.015 2.128,-3.271 0.414,-1.256 0.496,-2.598 0.238,-3.895 -0.079,-0.539 -0.307,-1.045 -0.657,-1.461 -0.993,-1.066 -2.804,-0.606 -3.994,0.234 -3.796,2.673 -4.855,7.831 -4.876,12.476 -0.387,-1.672 -0.066,-3.418 -0.073,-5.113 -0.008,-1.695 -0.482,-3.652 -1.928,-4.551 -0.896,-0.482 -1.903,-0.721 -2.92,-0.694 -1.708,-0.058 -3.606,0.11 -4.774,1.359 -1.46,1.556 -1.073,4.156 0.19,5.844 1.263,1.687 3.175,2.776 4.942,3.959 1.413,0.843 2.618,1.994 3.526,3.367 0.105,0.192 0.193,0.392 0.263,0.599 h 10.695 c 2.394,-1.218 4.614,-2.754 6.599,-4.565 z"
       id="path148"
       inkscape:connector-curvature="0"
       style="fill:#3abc41" />
    <path
       d="m 154.775,471.385 c 0,0 -10.257,-34.851 1.927,-60.498 5.189,-10.729 6.756,-22.854 4.468,-34.551 -1.129,-5.542 -2.764,-10.968 -4.884,-16.21"
       stroke-miterlimit="10"
       id="path150"
       inkscape:connector-curvature="0"
       style="stroke:#535461;stroke-width:2;stroke-miterlimit:10" />
    <path
       d="m 163.842,343.917 c 0,4.273 -7.731,16.655 -7.731,16.655 0,0 -7.724,-12.382 -7.724,-16.655 -0.032,-1.036 0.145,-2.067 0.519,-3.033 0.374,-0.966 0.938,-1.847 1.658,-2.59 0.721,-0.744 1.584,-1.335 2.537,-1.739 0.953,-0.404 1.978,-0.612 3.013,-0.612 1.036,0 2.06,0.208 3.014,0.612 0.953,0.404 1.816,0.995 2.536,1.739 0.721,0.743 1.285,1.624 1.659,2.59 0.374,0.966 0.551,1.997 0.519,3.033 z"
       id="path152"
       inkscape:connector-curvature="0"
       style="fill:#3abc41" />
    <path
       d="m 176.617,367.577 c -2.321,3.579 -15.535,9.774 -15.535,9.774 0,0 0.241,-14.61 2.563,-18.182 1.141,-1.66 2.884,-2.81 4.858,-3.204 1.975,-0.394 4.025,-10e-4 5.715,1.094 1.69,1.095 2.887,2.807 3.335,4.771 0.448,1.965 0.112,4.026 -0.936,5.747 z"
       id="path154"
       inkscape:connector-curvature="0"
       style="fill:#3abc41" />
    <path
       d="m 176.063,408.002 c -3.811,1.928 -18.346,0.599 -18.346,0.599 0,0 7.57,-12.484 11.381,-14.405 1.822,-0.855 3.904,-0.966 5.806,-0.309 1.902,0.656 3.473,2.029 4.38,3.826 0.906,1.797 1.077,3.878 0.476,5.799 -0.602,1.921 -1.928,3.531 -3.697,4.49 z"
       id="path156"
       inkscape:connector-curvature="0"
       style="fill:#3abc41" />
    <path
       d="m 168.755,438.514 c -3.431,2.535 -17.981,3.652 -17.981,3.652 0,0 5.359,-13.587 8.761,-16.129 1.651,-1.102 3.662,-1.526 5.617,-1.185 1.955,0.341 3.704,1.421 4.886,3.017 1.181,1.596 1.703,3.585 1.459,5.556 -0.244,1.97 -1.236,3.772 -2.771,5.031 z"
       id="path158"
       inkscape:connector-curvature="0"
       style="fill:#3abc41" />
    <path
       d="m 144.854,378.184 c 3.066,2.973 17.323,6.055 17.323,6.055 0,0 -3.489,-14.178 -6.57,-17.151 -1.482,-1.368 -3.439,-2.103 -5.455,-2.047 -2.015,0.055 -3.929,0.896 -5.333,2.344 -1.405,1.447 -2.189,3.386 -2.185,5.403 0.004,2.018 0.795,3.954 2.205,5.396 z"
       id="path160"
       inkscape:connector-curvature="0"
       style="fill:#3abc41" />
    <path
       d="m 136.765,413.955 c 3.811,1.922 18.338,0.592 18.338,0.592 0,0 -7.57,-12.484 -11.381,-14.405 -1.825,-0.874 -3.92,-0.998 -5.835,-0.345 -1.915,0.654 -3.497,2.033 -4.408,3.841 -0.91,1.808 -1.076,3.901 -0.462,5.83 0.614,1.929 1.96,3.54 3.748,4.487 z"
       id="path162"
       inkscape:connector-curvature="0"
       style="fill:#3abc41" />
    <path
       d="m 133.662,449.8 c 3.431,2.542 17.981,3.652 17.981,3.652 0,0 -5.358,-13.587 -8.76,-16.121 -1.651,-1.102 -3.663,-1.527 -5.618,-1.186 -1.955,0.341 -3.704,1.421 -4.885,3.017 -1.182,1.596 -1.704,3.585 -1.46,5.556 0.244,1.971 1.237,3.772 2.771,5.031 z"
       id="path164"
       inkscape:connector-curvature="0"
       style="fill:#3abc41" />
    <path
       d="m 130.508,469.194 c 0,0 12.491,-2.484 15.828,-5.793 3.336,-3.309 18.316,-9.094 19.981,-4.96 1.664,4.135 22.485,18.197 8.329,20.68 -14.155,2.484 -33.311,3.309 -37.472,1.659 -4.162,-1.651 -6.666,-11.586 -6.666,-11.586 z"
       id="path166"
       inkscape:connector-curvature="0"
       style="fill:#a8a8a8" />
    <path
       d="m 174.668,477.565 c -14.155,2.484 -33.311,3.309 -37.472,1.651 -3.176,-1.256 -5.381,-7.305 -6.25,-10.132 l -0.438,0.11 c 0,0 2.497,9.927 6.666,11.585 4.168,1.659 23.317,0.826 37.472,-1.658 4.089,-0.73 5.257,-2.396 4.819,-4.529 -0.329,1.366 -1.752,2.44 -4.797,2.973 z"
       id="path168"
       inkscape:connector-curvature="0"
       style="opacity:0.2;fill:#000000" />
    <path
       d="m 619.026,433.335 c 0,0 4.015,5.252 -1.847,13.149 -5.862,7.896 -10.695,14.609 -8.76,19.555 0,0 8.848,-14.72 16.061,-14.924 7.212,-0.205 2.453,-8.949 -5.454,-17.78 z"
       id="path170"
       inkscape:connector-curvature="0"
       style="fill:#3abc41" />
    <path
       d="m 619.026,433.335 c 0.351,0.509 0.629,1.064 0.825,1.651 7.023,8.254 10.761,15.961 4.008,16.151 -6.286,0.182 -13.827,11.432 -15.637,14.273 0.059,0.22 0.13,0.437 0.211,0.65 0,0 8.848,-14.719 16.061,-14.923 7.213,-0.205 2.439,-8.971 -5.468,-17.802 z"
       id="path172"
       inkscape:connector-curvature="0"
       style="opacity:0.1;fill:#000000" />
    <path
       d="m 626.487,440.026 c 0,1.848 -0.211,3.346 -0.467,3.346 -0.255,0 -0.46,-1.461 -0.46,-3.346 0,-1.885 0.256,-0.979 0.511,-0.979 0.256,0 0.416,-0.869 0.416,0.979 z"
       id="path174"
       inkscape:connector-curvature="0"
       style="fill:#ffd037" />
    <path
       d="m 629.042,442.232 c -1.62,0.884 -3.037,1.417 -3.153,1.191 -0.117,-0.227 1.087,-1.118 2.708,-2.002 1.621,-0.884 0.986,-0.241 1.11,0 0.124,0.241 0.956,-0.073 -0.665,0.811 z"
       id="path176"
       inkscape:connector-curvature="0"
       style="fill:#ffd037" />
    <path
       d="m 597.848,433.335 c 0,0 -4.015,5.252 1.847,13.149 5.862,7.896 10.695,14.609 8.76,19.555 0,0 -8.84,-14.72 -16.06,-14.924 -7.22,-0.205 -2.468,-8.949 5.453,-17.78 z"
       id="path178"
       inkscape:connector-curvature="0"
       style="fill:#3abc41" />
    <path
       d="m 597.848,433.335 c -0.351,0.509 -0.629,1.064 -0.825,1.651 -7.023,8.254 -10.761,15.961 -4.008,16.151 6.286,0.182 13.827,11.432 15.638,14.273 -0.059,0.222 -0.132,0.439 -0.22,0.65 0,0 -8.84,-14.719 -16.06,-14.923 -7.22,-0.205 -2.446,-8.971 5.475,-17.802 z"
       id="path180"
       inkscape:connector-curvature="0"
       style="opacity:0.1;fill:#000000" />
    <path
       d="m 590.387,440.026 c 0,1.848 0.212,3.346 0.467,3.346 0.256,0 0.46,-1.461 0.46,-3.346 0,-1.885 -0.255,-0.979 -0.511,-0.979 -0.255,0 -0.416,-0.869 -0.416,0.979 z"
       id="path182"
       inkscape:connector-curvature="0"
       style="fill:#ffd037" />
    <path
       d="m 587.832,442.232 c 1.621,0.884 3.03,1.417 3.154,1.191 0.124,-0.227 -1.088,-1.118 -2.709,-2.002 -1.621,-0.884 -0.985,-0.241 -1.109,0 -0.125,0.241 -0.957,-0.073 0.664,0.811 z"
       id="path184"
       inkscape:connector-curvature="0"
       style="fill:#ffd037" />
    <path
       d="m 591.665,465.374 c 0,0 11.213,-0.351 14.6,-2.754 3.388,-2.403 17.251,-5.282 18.09,-1.461 0.84,3.82 16.85,19.204 4.191,19.306 -12.659,0.103 -29.413,-1.972 -32.786,-4.025 -3.373,-2.052 -4.095,-11.066 -4.095,-11.066 z"
       id="path186"
       inkscape:connector-curvature="0"
       style="fill:#a8a8a8" />
    <path
       d="m 628.765,479.158 c -12.659,0.102 -29.413,-1.972 -32.786,-4.025 -2.57,-1.563 -3.599,-7.181 -3.935,-9.774 h -0.379 c 0,0 0.73,9.051 4.088,11.103 3.358,2.053 20.127,4.128 32.786,4.025 3.65,0 4.913,-1.329 4.847,-3.25 -0.511,1.176 -1.905,1.899 -4.621,1.921 z"
       id="path188"
       inkscape:connector-curvature="0"
       style="opacity:0.2;fill:#000000" />
  </g>
  <defs
     id="defs202">
    <linearGradient
       id="paint0_linear"
       x1="387.33499"
       y1="513.39502"
       x2="387.33499"
       y2="15.9976"
       gradientUnits="userSpaceOnUse">
      <stop
         stop-color="#808080"
         stop-opacity="0.25"
         id="stop192" />
      <stop
         offset="0.54"
         stop-color="#808080"
         stop-opacity="0.12"
         id="stop194" />
      <stop
         offset="1"
         stop-color="#808080"
         stop-opacity="0.1"
         id="stop196" />
    </linearGradient>
    <clipPath
       id="clip0">
      <rect
         width="737"
         height="560"
         id="rect199"
         x="0"
         y="0"
         style="fill:#ffffff" />
    </clipPath>
  </defs>
</svg>
