<?xml version="1.0" encoding="UTF-8" standalone="no"?>
<!DOCTYPE svg PUBLIC "-//W3C//DTD SVG 20010904//EN"
              "http://www.w3.org/TR/2001/REC-SVG-20010904/DTD/svg10.dtd">

<svg xmlns="http://www.w3.org/2000/svg"
     width="108.289mm" height="103.351mm"
     viewBox="0 0 307 293">
  <path id="Selection"
        fill="none" stroke="black" stroke-width="1"
        d="M 0.69,3.27
           C 0.64,3.50 0.54,3.78 0.62,4.02
             0.69,4.24 0.84,4.26 0.89,4.45
             0.92,4.59 0.87,4.75 0.97,5.09
             1.08,5.51 1.44,6.05 1.72,6.38
             2.51,7.31 3.08,7.55 3.75,8.73
             3.90,8.99 4.04,9.29 4.08,9.59
             4.24,10.67 3.10,11.01 2.45,10.74
             1.95,10.54 1.69,10.00 1.73,9.48
             1.73,9.48 1.94,8.14 1.94,8.14
             1.97,7.98 1.99,7.72 1.80,7.65
             1.56,7.57 1.38,7.85 1.32,8.04
             1.15,8.50 1.11,9.15 1.12,9.64
             1.13,10.82 2.17,11.46 3.24,11.46
             3.24,11.46 3.72,11.46 3.72,11.46
             4.08,11.46 4.34,11.39 4.68,11.25
             4.90,11.16 5.13,11.02 5.31,10.86
             6.41,9.89 5.45,8.08 4.67,7.23
             4.67,7.23 4.09,6.64 4.09,6.64
             4.09,6.64 3.30,5.89 3.30,5.89
             2.89,5.48 2.53,5.11 2.47,4.50
             2.45,4.23 2.56,3.95 2.66,3.70
             2.76,3.77 2.86,3.84 2.98,3.89
             3.05,3.93 3.16,3.96 3.24,3.98
             4.04,4.12 3.77,2.96 3.78,2.89
             3.79,2.82 4.05,2.34 4.10,2.26
             4.31,1.97 4.97,1.83 5.32,1.82
             5.47,1.82 5.65,1.82 5.79,1.87
             6.47,2.10 6.28,2.77 5.96,3.21
             5.49,3.88 4.54,4.14 4.18,4.66
             3.68,5.38 4.57,6.44 5.42,6.48
             6.29,6.52 6.83,5.67 7.19,4.98
             7.82,3.77 8.05,2.00 6.75,1.13
             6.57,1.01 6.37,0.92 6.17,0.87
             5.93,0.80 5.56,0.74 5.32,0.75
             4.62,0.78 3.97,1.07 3.83,1.09
             3.74,1.09 3.38,1.02 3.30,0.99
             3.13,0.91 3.06,0.73 2.95,0.59
             2.76,0.35 2.44,0.09 2.13,0.06
             1.29,-0.01 1.02,1.07 0.91,1.22
             0.77,1.41 0.57,1.37 0.29,1.72
             -0.13,2.25 0.03,3.04 0.69,3.27 Z
           M 13.34,9.91
           C 13.95,9.56 14.51,9.36 15.03,8.83
             15.82,8.04 16.27,6.87 15.66,5.84
             15.52,5.62 15.29,5.38 15.10,5.21
             14.83,4.99 14.57,4.86 14.25,4.74
             12.54,4.11 10.20,4.73 8.93,6.00
             8.44,6.49 8.06,7.03 7.89,7.71
             7.69,8.60 7.86,9.36 8.51,10.02
             8.69,10.20 9.33,10.62 9.38,10.77
             9.43,10.93 9.27,11.35 9.22,11.52
             9.08,12.00 9.08,12.20 9.09,12.70
             9.09,12.84 9.12,13.05 9.09,13.18
             9.04,13.50 8.56,14.22 9.30,14.75
             9.42,14.83 9.54,14.88 9.67,14.92
             9.88,14.98 10.00,15.00 10.21,15.00
             10.21,15.00 10.95,15.00 10.95,15.00
             12.27,14.98 13.50,14.06 14.17,12.96
             14.44,12.52 14.64,12.05 14.62,11.52
             14.59,10.78 14.09,10.03 13.34,9.91 Z
           M 12.12,9.70
           C 12.26,9.09 12.54,8.73 12.27,8.09
             12.05,7.55 11.42,7.12 10.84,7.08
             10.66,7.06 10.36,7.05 10.22,7.20
             10.00,7.44 10.36,7.64 10.35,8.04
             10.35,8.34 10.00,9.41 9.89,9.75
             9.18,9.38 9.33,8.20 9.64,7.61
             10.29,6.37 11.64,5.61 13.02,5.63
             14.41,5.64 15.07,6.94 14.46,8.14
             13.99,9.06 13.08,9.50 12.12,9.70 Z
           M 12.12,10.52
           C 12.35,10.49 12.65,10.48 12.85,10.61
             13.28,10.90 13.02,11.69 12.85,12.05
             12.38,13.04 11.38,14.33 10.21,14.46
             9.78,14.50 9.40,14.24 9.54,13.77
             9.64,13.41 10.00,13.69 10.21,13.23
             10.21,13.23 10.41,12.32 10.41,12.32
             10.55,11.89 10.83,11.49 11.11,11.14
             11.23,11.00 11.33,10.82 11.48,10.72
             11.64,10.62 11.94,10.55 12.12,10.52 Z" />
</svg>
