<?xml version="1.0" encoding="UTF-8" standalone="no"?>
<!DOCTYPE svg PUBLIC "-//W3C//DTD SVG 20010904//EN"
              "http://www.w3.org/TR/2001/REC-SVG-20010904/DTD/svg10.dtd">

<svg xmlns="http://www.w3.org/2000/svg"
     width="108.289mm" height="103.351mm"
     viewBox="0 0 307 293">
  <path id="Selection #2"
        fill="none" stroke="black" stroke-width="1"
        d="M 13.00,62.25
           C 11.43,67.67 9.50,77.62 15.06,80.09
             18.25,81.40 26.00,79.12 26.00,79.12
             28.62,77.88 35.25,73.38 38.25,68.38
             38.25,68.38 41.75,60.75 41.75,60.75
             41.75,60.75 43.50,60.88 43.50,60.88
             43.50,60.88 45.62,63.88 47.77,66.79
             50.00,69.25 62.38,78.50 68.88,72.50
             74.12,65.61 70.38,53.25 69.88,52.75
             70.12,53.00 63.25,57.62 57.62,57.38
             48.12,57.50 46.12,49.25 40.25,49.88
             33.12,49.25 32.75,59.50 26.62,62.25
             21.12,64.38 14.50,63.00 13.00,62.25 Z" />
</svg>
