<?xml version="1.0" encoding="UTF-8" standalone="no"?>
<!DOCTYPE svg PUBLIC "-//W3C//DTD SVG 20010904//EN"
              "http://www.w3.org/TR/2001/REC-SVG-20010904/DTD/svg10.dtd">

<svg xmlns="http://www.w3.org/2000/svg"
     width="108.289mm" height="103.351mm"
     viewBox="0 0 307 293">
  <path id="Selection #1"
        fill="none" stroke="black" stroke-width="1"
        d="M 13.00,62.25
           C 11.43,67.67 9.50,77.62 15.06,80.09
             18.25,81.40 26.00,79.12 26.00,79.12
             28.62,77.88 35.25,73.38 38.25,68.38
             38.25,68.38 41.75,60.75 41.75,60.75
             41.75,60.75 43.50,60.88 43.50,60.88
             43.50,60.88 45.62,63.88 47.77,66.79
             50.00,69.25 62.38,78.50 68.88,72.50
             74.12,65.61 70.38,53.25 69.88,52.75
             70.12,53.00 74.91,48.12 76.30,44.00
             78.79,36.62 77.50,27.01 71.38,21.88
             66.72,17.98 62.62,18.50 59.88,18.88
             59.25,16.25 50.40,1.99 40.38,1.12
             24.92,-0.20 19.84,20.80 18.00,23.50
             16.62,24.25 9.79,25.71 4.50,32.50
             -4.05,43.49 2.62,55.75 13.00,62.25 Z" />
</svg>
