<svg width="42" height="42" viewBox="0 0 42 42" fill="none" xmlns="http://www.w3.org/2000/svg">
<path d="M21 3.5C11.34 3.5 3.5 11.34 3.5 21C3.5 30.66 11.34 38.5 21 38.5C30.66 38.5 38.5 30.66 38.5 21C38.5 11.34 30.66 3.5 21 3.5ZM12.3725 31.99C13.125 30.415 17.71 28.875 21 28.875C24.29 28.875 28.8925 30.415 29.6275 31.99C27.2475 33.88 24.255 35 21 35C17.745 35 14.7525 33.88 12.3725 31.99ZM32.13 29.4525C29.6275 26.4075 23.555 25.375 21 25.375C18.445 25.375 12.3725 26.4075 9.87 29.4525C8.085 27.1075 7 24.185 7 21C7 13.2825 13.2825 7 21 7C28.7175 7 35 13.2825 35 21C35 24.185 33.915 27.1075 32.13 29.4525ZM21 10.5C17.605 10.5 14.875 13.23 14.875 16.625C14.875 20.02 17.605 22.75 21 22.75C24.395 22.75 27.125 20.02 27.125 16.625C27.125 13.23 24.395 10.5 21 10.5ZM21 19.25C19.5475 19.25 18.375 18.0775 18.375 16.625C18.375 15.1725 19.5475 14 21 14C22.4525 14 23.625 15.1725 23.625 16.625C23.625 18.0775 22.4525 19.25 21 19.25Z" fill="#9377E2"/>
</svg>
