<svg width="42" height="42" viewBox="0 0 42 42" fill="none" xmlns="http://www.w3.org/2000/svg">
<path d="M31.5 14H29.75V10.5C29.75 5.67 25.83 1.75 21 1.75C16.17 1.75 12.25 5.67 12.25 10.5V14H10.5C8.575 14 7 15.575 7 17.5V35C7 36.925 8.575 38.5 10.5 38.5H31.5C33.425 38.5 35 36.925 35 35V17.5C35 15.575 33.425 14 31.5 14ZM21 29.75C19.075 29.75 17.5 28.175 17.5 26.25C17.5 24.325 19.075 22.75 21 22.75C22.925 22.75 24.5 24.325 24.5 26.25C24.5 28.175 22.925 29.75 21 29.75ZM15.75 14V10.5C15.75 7.595 18.095 5.25 21 5.25C23.905 5.25 26.25 7.595 26.25 10.5V14H15.75Z" fill="#9377E2"/>
</svg>
