<?xml version="1.0" encoding="UTF-8" standalone="no"?>
<svg
   xmlns:dc="http://purl.org/dc/elements/1.1/"
   xmlns:cc="http://creativecommons.org/ns#"
   xmlns:rdf="http://www.w3.org/1999/02/22-rdf-syntax-ns#"
   xmlns:svg="http://www.w3.org/2000/svg"
   xmlns="http://www.w3.org/2000/svg"
   xmlns:sodipodi="http://sodipodi.sourceforge.net/DTD/sodipodi-0.dtd"
   xmlns:inkscape="http://www.inkscape.org/namespaces/inkscape"
   enable-background="new 0 0 24 24"
   height="28.067799"
   viewBox="0 0 24.000002 28.067799"
   width="24.000002"
   version="1.1"
   id="svg6"
   sodipodi:docname="shopping_cart_hollow.svg"
   inkscape:version="0.92.5 (2060ec1f9f, 2020-04-08)">
  <metadata
     id="metadata12">
    <rdf:RDF>
      <cc:Work
         rdf:about="">
        <dc:format>image/svg+xml</dc:format>
        <dc:type
           rdf:resource="http://purl.org/dc/dcmitype/StillImage" />
        <dc:title />
      </cc:Work>
    </rdf:RDF>
  </metadata>
  <defs
     id="defs10" />
  <sodipodi:namedview
     pagecolor="#ffffff"
     bordercolor="#666666"
     borderopacity="1"
     objecttolerance="10"
     gridtolerance="10"
     guidetolerance="10"
     inkscape:pageopacity="0"
     inkscape:pageshadow="2"
     inkscape:window-width="1366"
     inkscape:window-height="715"
     id="namedview8"
     showgrid="false"
     inkscape:zoom="9.8333333"
     inkscape:cx="1.9353672"
     inkscape:cy="17.564498"
     inkscape:window-x="1360"
     inkscape:window-y="24"
     inkscape:window-maximized="1"
     inkscape:current-layer="svg6" />
  <rect
     height="24"
     width="24"
     id="rect2"
     x="0"
     y="4.0677977"
     style="fill:none" />
  <path
     d="m 7,22.067797 c -1.1,0 -1.99,0.9 -1.99,2 0,1.1 0.89,2 1.99,2 1.1,0 2,-0.9 2,-2 0,-1.1 -0.9,-2 -2,-2 z m 10,0 c -1.1,0 -1.99,0.9 -1.99,2 0,1.1 0.89,2 1.99,2 1.1,0 2,-0.9 2,-2 0,-1.1 -0.9,-2 -2,-2 z m -8.9,-5 h 7.45 c 0.75,0 1.41,-0.41 1.75,-1.03 l 3.24,-6.1399996 c 0.25,-0.48 0.08,-1.08 -0.4,-1.34 v 0 c -0.49,-0.2699998 -1.1,-0.08 -1.36,0.41 L 15.55,15.067797 H 8.53 L 4.27,6.0677976 H 2 c -0.55,0 -1,0.45 -1,1 v 0 c 0,0.55 0.45,1 1,1 h 1 l 3.6,7.5899994 -1.35,2.44 c -0.73,1.34 0.23,2.97 1.75,2.97 h 11 c 0.55,0 1,-0.45 1,-1 v 0 c 0,-0.55 -0.45,-1 -1,-1 H 7 Z"
     id="path4"
     inkscape:connector-curvature="0"
     sodipodi:nodetypes="sssssssssscsccccccccsccscccssccscc" />
  <circle
     style="opacity:1;fill-opacity:1;stroke-width:1.7647059"
     id="path816"
     cx="16.372883"
     cy="7.6271186"
     r="7.6271186" 
     />
  <text
     xml:space="preserve"
     style="font-style:normal;font-variant:normal;font-weight:normal;font-stretch:normal;font-size:14.66666698px;line-height:1.25;font-family:Poppins;-inkscape-font-specification:Poppins;letter-spacing:0px;word-spacing:0px;fill:#ffffff;fill-opacity:1;stroke:none;stroke-opacity:1"
     x="13.945549"
     y="12.980452"
     id="text820"><tspan
       sodipodi:role="line"
       id="tspan818"
       x="13.945549"
       y="12.980452">1</tspan></text>
</svg>
