<!-- Generated by IcoMoon.io -->
<svg version="1.1" xmlns="http://www.w3.org/2000/svg" width="32" height="32" viewBox="0 0 32 32">
<title>mastercard</title>
<path fill="#eb001b" d="M15.124 24.041c0.077 0.065 0.16 0.131 0.241 0.195-1.569 1.044-3.453 1.651-5.476 1.651-5.463 0.001-9.889-4.425-9.889-9.887 0-5.46 4.427-9.888 9.888-9.888 2.024 0 3.908 0.608 5.473 1.651-0.080 0.068-0.16 0.131-0.22 0.2-2.341 2.023-3.681 4.955-3.681 8.037 0 3.081 1.335 6.013 3.664 8.041zM22.112 6.112c-2.027 0-3.908 0.608-5.473 1.651 0.080 0.068 0.16 0.131 0.22 0.2 2.341 2.023 3.681 4.955 3.681 8.037 0 3.080-1.335 6.009-3.664 8.041-0.077 0.065-0.16 0.131-0.241 0.195 1.569 1.044 3.451 1.651 5.476 1.651 5.463 0.001 9.889-4.425 9.889-9.887 0-5.459-4.427-9.888-9.888-9.888zM16 8.232c-0.128 0.1-0.252 0.2-0.373 0.308-2.085 1.812-3.401 4.48-3.401 7.46 0 2.981 1.316 5.648 3.401 7.46 0.12 0.107 0.247 0.211 0.373 0.309 0.128-0.099 0.252-0.203 0.373-0.309 2.084-1.812 3.401-4.479 3.401-7.46 0-2.98-1.316-5.648-3.401-7.46-0.12-0.107-0.245-0.208-0.373-0.308z"></path>
</svg>
